<?xml version="1.0" encoding="utf-8"?>
<!-- Generator: Adobe Illustrator 27.5.0, SVG Export Plug-In . SVG Version: 6.00 Build 0)  -->
<svg version="1.1" id="Layer_1" xmlns="http://www.w3.org/2000/svg" xmlns:xlink="http://www.w3.org/1999/xlink" x="0px" y="0px"
	 viewBox="0 0 2000 2000" style="enable-background:new 0 0 2000 2000;" xml:space="preserve">
<g id="XMLID_439_">
	<g id="XMLID_377_">
		<path style="fill:#637690;" d="M917.48,514.432c20.099,1.588,45.017,5.891,59.607,19.806c21.306,20.32,8.238,52.091-7.592,63.962
			c-3.837,2.878-8.272,4.857-12.778,6.502c-40.45,14.772-99.366,4.154-112.396-40.564c-3.688-12.656-1.404-18.705,5.554-29.696
			C854.335,527.394,856.145,509.585,917.48,514.432z"/>
		<path style="fill:#637690;" d="M920.23,612.404c-15.932,0-31.65-3.342-44.642-9.918c-16.578-8.392-27.872-21.513-32.66-37.944
			c-3.928-13.48-1.132-20.054,5.719-30.877c0.441-0.693,0.849-1.497,1.302-2.373c4.361-8.503,11.645-22.733,67.643-18.307
			c28.845,2.281,48.632,8.889,60.492,20.203c8.212,7.83,12.191,18.045,11.509,29.538c-0.951,16.056-10.344,29.966-19.232,36.63
			c-3.418,2.564-7.474,4.632-13.148,6.706C945.589,610.308,932.843,612.404,920.23,612.404z M898.038,515.043
			c-36.491,0-42.018,10.77-45.513,17.574c-0.492,0.962-0.946,1.841-1.426,2.601c-6.523,10.301-9.002,16.112-5.385,28.516
			c4.556,15.641,15.34,28.147,31.185,36.167c22.591,11.437,53.731,12.787,79.319,3.441c5.397-1.971,9.223-3.914,12.406-6.301
			c9.879-7.408,17.313-21.589,18.078-34.484c0.628-10.616-3.042-20.047-10.615-27.27c-11.362-10.836-30.568-17.185-58.72-19.411
			C910.108,515.303,903.698,515.043,898.038,515.043z"/>
	</g>
	<g id="XMLID_266_">
		<path id="XMLID_312_" style="fill:#FBA584;" d="M819.393,571.365c-5.326,1.398-7.146,7.688-4.027,12.226
			c75.95,110.463,214.413,27.213,179.901,6.474c-31.491-18.924-51.331-12.081-32.003-91.924c1.175-4.854,0.98-8.399-8.031-10.422
			c-64.782-14.539-69.975-19.527-76.859-16.34c-0.34,0.158-3.519,64.064-20.19,79.433
			C846.487,561.596,831.437,568.204,819.393,571.365z"/>
		<path id="XMLID_311_" style="fill:#EA7957;" d="M958.225,521.394c-2.11,13.771-4.868,27.86-1.027,39.717
			c-0.067-0.02-26.648-20.296-47.619-26.417c-4.045-1.181-8.283-2.194-11.624-4.762c-4.558-3.504-22.197-16.469-21.145-42.344
			C891.587,517.85,920.387,543.782,958.225,521.394z"/>
		<path id="XMLID_310_" style="fill:#FBA584;" d="M937.791,531.784c-32.401,2.025-53.087-16.948-63.823-49.771
			c-6.386-19.524-15.544-85.688,7.829-111.535c33.917-37.508,125.9-23.422,121.371,46.398
			C1001.094,448.842,978.19,529.259,937.791,531.784z"/>
		<g id="XMLID_293_">
			<path id="XMLID_309_" style="fill:#382823;" d="M962.702,450.414c4.37,0.908,11.242-14.998,0.642-17.2
				C957.685,432.038,955.551,448.928,962.702,450.414z"/>
			<path id="XMLID_304_" style="fill:#382823;" d="M902.716,440.648c4.443,0.423,9.527-16.141-1.251-17.167
				C895.712,422.934,895.445,439.956,902.716,440.648z"/>
			<g id="XMLID_1482_">
				<path style="fill:#EA7957;" d="M931.012,470.374c-0.13,0-0.263-0.017-0.396-0.051c-5.931-1.536-9.072-2.444-10.125-4.726
					c-0.971-2.108,0.144-4.393,2.168-8.542c2.253-4.622,5.66-11.606,8.79-23.177c0.229-0.842,1.095-1.334,1.938-1.114
					c0.844,0.229,1.342,1.097,1.112,1.94c-3.206,11.86-6.693,19.007-8.999,23.737c-1.387,2.841-2.482,5.086-2.136,5.832
					c0.472,1.026,4.672,2.114,8.045,2.987c0.846,0.22,1.353,1.083,1.135,1.927C932.359,469.902,931.717,470.374,931.012,470.374z"/>
			</g>
			<path id="XMLID_302_" style="fill:#4D3930;" d="M909.842,419.024c2.161,0.169,4.368-0.368,5.78-1.663
				c3.539-3.246-0.61-7.091-4.701-8.817c-8.303-3.502-19.436-1.208-28.275,2.872c-1.868,0.862-1.58,3.642,0.421,4.118
				C887.402,416.567,895.368,417.893,909.842,419.024z"/>
			<path id="XMLID_301_" style="fill:#4D3930;" d="M966.497,429.101c-2.043-0.724-3.841-2.111-4.605-3.869
				c-1.914-4.405,3.439-6.231,7.879-6.145c9.01,0.175,18.249,6.796,24.667,14.116c1.356,1.546-0.037,3.97-2.059,3.592
				C987.998,435.976,980.181,433.951,966.497,429.101z"/>
			<g id="XMLID_294_">
				<path id="XMLID_298_" style="fill:#EA7957;" d="M945.523,493.684c-14.113-0.365-21.88-2.066-35.45-5.861
					c-5.442-1.522,4.13,41.104,36.126,8.121C946.956,495.163,946.61,493.712,945.523,493.684z"/>
				<path id="XMLID_297_" style="fill:#FFFFFF;" d="M944.563,494.356c4.62,5.404-27.708,4.45-33.113-0.889
					c-0.592-0.584-2.422-3.607-1.707-4.475c0.706-0.856,4.4,0.895,5.401,1.187C924.858,493.014,934.05,494.372,944.563,494.356z"/>
			</g>
		</g>
		<g id="XMLID_287_">
			<g id="XMLID_291_">
				<path style="fill:#4D3930;" d="M844.519,383.827c-0.665,0-1.282-0.423-1.503-1.088c-0.272-0.83,0.178-1.724,1.008-1.995
					c11.074-3.642,15.454-13.991,20.092-24.946c1.579-3.733,3.212-7.591,5.133-11.188c14.65-27.409,37.856-33.502,54.676-30.063
					c16.994,3.471,28.893,16.144,30.314,32.288c0.079,0.87-0.566,1.637-1.434,1.714c-0.864,0.075-1.636-0.564-1.712-1.436
					c-1.299-14.717-12.211-26.283-27.798-29.468c-15.729-3.214-37.428,2.582-51.255,28.457c-1.856,3.47-3.461,7.262-5.012,10.929
					c-4.709,11.123-9.58,22.626-22.014,26.716C844.85,383.801,844.683,383.827,844.519,383.827z"/>
			</g>
			<g id="XMLID_288_">
				<path style="fill:#4D3930;" d="M1012.587,364.81c-0.512,0-1.013-0.246-1.318-0.703c-12.477-18.725-26.36-28.641-39.324-27.998
					c-8.787,0.46-16.439,6.072-21.547,15.801c-0.408,0.777-1.367,1.07-2.137,0.665c-0.772-0.406-1.07-1.361-0.665-2.134
					c5.648-10.758,14.237-16.97,24.184-17.489c14.05-0.719,28.992,9.708,42.12,29.4c0.484,0.727,0.289,1.708-0.439,2.193
					C1013.193,364.726,1012.887,364.81,1012.587,364.81z"/>
			</g>
		</g>
		<path id="XMLID_286_" style="fill:#4D3930;" d="M1035.526,421.218c1.114,12.757-22.491,49.445-42.681,43.547
			c-3.808-1.112,18.239-20.259,5.849-22.053c-17.465-2.529-5.765-19.942-23.8-37.989c1.251,8.082,4.191,10.349-22.576,6.085
			c-12.364-1.97,6.864-12.206-2.83-26.962c-6.255,8.417-15.97,19.122-31.141,13.676c-32.166-11.546-37.576,37.165-50.992,40.766
			c-13.922,3.736-27.176-29.812-31.667-43.912c-0.31-0.972,0.224-2.014,1.17-2.397c34.48-13.979,26.023-33.948,46.714-55.261
			c20.048-20.652,48.839-28.041,66.624,1.325c4.642,7.666,4.504,4.3,12.742,0.086
			C989.025,324.788,1032.816,390.192,1035.526,421.218z"/>
		<g id="XMLID_276_">
			<g id="XMLID_1472_">
				<path style="fill:#382823;" d="M950.151,380.311c-0.175,0-0.354-0.03-0.526-0.092c-0.824-0.292-1.256-1.194-0.965-2.018
					c5.136-14.503,5.006-25.775,2.598-30.512c-0.396-0.778-0.085-1.73,0.693-2.125c0.77-0.388,1.726-0.088,2.126,0.693
					c3.311,6.516,2.354,19.468-2.434,33C951.41,379.905,950.802,380.311,950.151,380.311z"/>
			</g>
			<g id="XMLID_1471_">
				<path style="fill:#382823;" d="M1016.634,453.501c-0.323,0-0.645-0.096-0.925-0.298c-0.708-0.512-0.866-1.5-0.357-2.207
					c14.147-19.573,13.663-42.938,5.872-55.903c-0.45-0.747-0.207-1.719,0.54-2.169c0.756-0.45,1.721-0.204,2.171,0.542
					c8.323,13.852,8.928,38.699-6.019,59.381C1017.607,453.275,1017.123,453.501,1016.634,453.501z"/>
			</g>
			<g id="XMLID_285_">
				<path style="fill:#382823;" d="M1004.123,426.475c-0.456,0-0.908-0.196-1.22-0.576c-0.555-0.674-0.458-1.67,0.215-2.224
					c4.927-4.057,6.543-10.936,5.088-21.652c-0.116-0.864,0.49-1.661,1.356-1.778c0.829-0.132,1.661,0.486,1.78,1.354
					c1.016,7.491,1.477,18.184-6.215,24.515C1004.833,426.358,1004.477,426.475,1004.123,426.475z"/>
			</g>
			<g id="XMLID_283_">
				<path style="fill:#382823;" d="M998.191,367.141c-0.532,0-1.05-0.267-1.35-0.752c-2.64-4.297-12.064-18.448-22.407-20.124
					c-3.382-0.553-6.39,0.34-9.214,2.711c-0.662,0.556-1.664,0.475-2.227-0.196c-0.56-0.668-0.473-1.665,0.195-2.227
					c3.52-2.958,7.479-4.104,11.75-3.41c11.67,1.89,21.779,17.002,24.597,21.59c0.456,0.744,0.224,1.718-0.518,2.175
					C998.757,367.066,998.471,367.141,998.191,367.141z"/>
			</g>
			<g id="XMLID_1468_">
				<path style="fill:#382823;" d="M979.356,369.477c-0.433,0-0.866-0.176-1.177-0.525c-4.211-4.699-10.471-7.492-16.778-7.492
					c-0.057,0-0.113,0.006-0.176,0c-0.869,0-1.573-0.699-1.582-1.568c-0.006-0.873,0.696-1.586,1.571-1.593
					c0.062-0.001,0.125-0.001,0.187-0.001c7.191,0,14.331,3.185,19.133,8.543c0.583,0.651,0.529,1.65-0.122,2.233
					C980.108,369.344,979.732,369.477,979.356,369.477z"/>
			</g>
			<g id="XMLID_1467_">
				<path style="fill:#382823;" d="M972.414,395.878c-0.875,0-1.582-0.709-1.582-1.582c0.005-4.552-5.335-17.506-15.256-20.882
					c-0.826-0.282-1.268-1.18-0.988-2.006c0.283-0.828,1.177-1.268,2.007-0.988c11.492,3.911,17.406,18.51,17.401,23.879
					C973.993,395.172,973.285,395.878,972.414,395.878z"/>
			</g>
			<g id="XMLID_282_">
				<path style="fill:#382823;" d="M945.549,347.405c-0.716,0-1.361-0.487-1.536-1.211c-1.022-4.238-6.772-13.991-15.434-17.336
					c-5.113-1.971-10.256-1.238-15.284,2.183c-0.722,0.491-1.707,0.301-2.196-0.419c-0.49-0.722-0.303-1.705,0.419-2.196
					c5.858-3.983,12.146-4.855,18.199-2.517c9.106,3.516,15.938,13.609,17.37,19.544c0.204,0.849-0.317,1.702-1.166,1.907
					C945.796,347.39,945.671,347.405,945.549,347.405z"/>
			</g>
			<g id="XMLID_281_">
				<path style="fill:#382823;" d="M945.108,360.683c-0.476,0-0.948-0.215-1.26-0.625c-3.098-4.086-9.44-5.319-13.844-2.691
					c-0.753,0.452-1.718,0.201-2.168-0.549c-0.447-0.75-0.201-1.72,0.549-2.168c5.816-3.465,13.886-1.904,17.981,3.498
					c0.529,0.696,0.39,1.687-0.303,2.215C945.779,360.578,945.442,360.683,945.108,360.683z"/>
			</g>
			<g id="XMLID_280_">
				<path style="fill:#382823;" d="M922.384,386.922c-3.407,0-6.679-0.954-9.29-2.785c-0.713-0.501-0.889-1.487-0.385-2.202
					c0.498-0.716,1.486-0.887,2.202-0.388c3.13,2.196,7.508,2.802,11.696,1.624c4.622-1.298,11.206-5.315,16.343-17.08
					c0.351-0.801,1.285-1.16,2.083-0.816c0.798,0.35,1.163,1.282,0.815,2.082c-5.632,12.9-13.108,17.377-18.386,18.86
					C925.777,386.69,924.065,386.922,922.384,386.922z"/>
			</g>
			<g id="XMLID_279_">
				<path style="fill:#382823;" d="M875.088,420.261c-0.07,0-0.144-0.004-0.218-0.014c-0.863-0.119-1.468-0.916-1.35-1.78
					c2.722-19.962,23.067-35.044,28.831-34.39c0.869,0.096,1.492,0.879,1.396,1.746c-0.096,0.87-0.866,1.498-1.746,1.395
					c-3.226-0.252-22.747,12.627-25.35,31.676C876.542,419.687,875.866,420.261,875.088,420.261z"/>
			</g>
			<g id="XMLID_1462_">
				<path style="fill:#382823;" d="M841.216,397.284c-0.871,0-1.582-0.707-1.582-1.58s0.708-1.58,1.582-1.58
					c19.538-0.008,24.666-11.122,32.431-27.946c1.126-2.439,2.298-4.975,3.566-7.581c0.382-0.784,1.333-1.108,2.111-0.73
					c0.787,0.382,1.112,1.329,0.73,2.114c-1.257,2.585-2.417,5.101-3.534,7.523C868.842,384.137,862.778,397.277,841.216,397.284z"
					/>
			</g>
			<g id="XMLID_278_">
				<path style="fill:#382823;" d="M854.339,419.109c-0.122,0-0.244-0.014-0.368-0.044c-0.849-0.204-1.372-1.056-1.169-1.906
					c1.16-4.863,5.074-6.912,8.591-6.762c3.688,0.152,6.523,2.578,7.055,6.039c0.133,0.863-0.458,1.67-1.322,1.802
					c-0.835,0.134-1.67-0.456-1.802-1.321c-0.365-2.373-2.417-3.294-4.061-3.361c-1.936-0.059-4.587,1.006-5.388,4.338
					C855.703,418.62,855.055,419.109,854.339,419.109z"/>
			</g>
			<g id="XMLID_1460_">
				<path style="fill:#382823;" d="M968.01,409.952c-4.081,0-9.919-1.401-13.377-2.342c-0.713-0.194-1.293-0.692-1.593-1.364
					c-0.294-0.658-0.277-1.404,0.045-2.045c1.381-2.776,1.35-8.61,0.402-11.586c-0.266-0.831,0.192-1.72,1.024-1.985
					c0.849-0.264,1.721,0.195,1.987,1.026c1.089,3.416,1.211,9.373-0.221,13.121c4.839,1.27,10.64,2.388,13.264,1.902
					c0.841-0.16,1.684,0.41,1.84,1.272c0.156,0.858-0.413,1.682-1.273,1.838C969.491,409.902,968.78,409.952,968.01,409.952z"/>
			</g>
			<g id="XMLID_277_">
				<path style="fill:#382823;" d="M1012.98,448.427c-0.815,0-1.506-0.625-1.574-1.453c-0.246-3.048-1.477-5.43-3.464-6.704
					c-1.792-1.154-4.109-1.3-6.506-0.428c-0.821,0.306-1.729-0.127-2.026-0.946c-0.297-0.821,0.124-1.728,0.945-2.025
					c3.354-1.22,6.653-0.958,9.294,0.737c2.836,1.821,4.579,5.057,4.91,9.111c0.071,0.87-0.577,1.633-1.449,1.704
					C1013.068,448.426,1013.026,448.427,1012.98,448.427z"/>
			</g>
			<g id="XMLID_1458_">
				<path style="fill:#382823;" d="M991.555,434.502c-0.934-0.034-1.613-0.77-1.579-1.642c0.345-8.954-3.891-19.576-10.793-27.064
					c-0.591-0.641-0.549-1.641,0.09-2.232c0.643-0.589,1.642-0.553,2.236,0.09c7.553,8.194,12.007,19.432,11.625,29.328
					C993.103,433.835,992.401,434.502,991.555,434.502z"/>
			</g>
		</g>
		<g id="XMLID_271_">
			<g id="XMLID_274_">
				<path id="XMLID_275_" style="fill:#FBA584;" d="M864.999,420.844c13.337-1.602,9.669,25.147,7.482,38.363
					C868.172,485.26,843.993,423.368,864.999,420.844z"/>
			</g>
			<g id="XMLID_272_">
				<path style="fill:#EA7957;" d="M868.293,451.629c-0.408,0-0.815-0.157-1.124-0.47c-4.87-4.931-5.81-11.75-2.51-18.24
					c0.399-0.781,1.353-1.085,2.125-0.694c0.778,0.396,1.09,1.347,0.693,2.126c-2.691,5.296-1.984,10.612,1.939,14.586
					c0.614,0.622,0.608,1.622-0.012,2.236C869.097,451.478,868.695,451.629,868.293,451.629z"/>
			</g>
		</g>
		<g id="XMLID_267_">
			<g id="XMLID_269_">
				<path id="XMLID_270_" style="fill:#FBA584;" d="M1002.751,443.404c-12.215-5.59-16.872,21.005-18.816,34.259
					C980.102,503.79,1021.99,452.208,1002.751,443.404z"/>
			</g>
			<g id="XMLID_268_">
				<path style="fill:#EA7957;" d="M990.715,471.796c-0.569,0-1.118-0.309-1.401-0.848c-0.405-0.774-0.105-1.729,0.668-2.134
					c4.95-2.59,7.245-7.437,6.294-13.301c-0.141-0.862,0.445-1.674,1.307-1.814c0.846-0.143,1.673,0.446,1.811,1.307
					c1.169,7.186-1.803,13.397-7.946,16.609C991.213,471.738,990.964,471.796,990.715,471.796z"/>
			</g>
		</g>
	</g>
	<g id="XMLID_327_">
		<path id="XMLID_336_" style="fill:#FBA584;" d="M1376.88,1081.752c-9.017-26.192-26.73-29.588-26.73-29.588l-83.38,73.622
			l46.163,38.155C1312.932,1163.942,1359.298,1092.126,1376.88,1081.752z"/>
		<g id="XMLID_330_">
			<g id="XMLID_335_">
				<path style="fill:#514342;" d="M1359.022,1015.287c1.372-2.476,4.468-3.388,6.965-2.056
					c19.822,10.571,98.646,52.609,98.786,52.694c2.824,1.712,3.811,5.316,2.291,8.248c-3.283,6.331-11.554,10.281-19.125,10.393
					c-16.839,0.249-41.228-16.644-74.151,8.065c-2.129,1.598-5.23,0.774-6.199-1.705c-2.756-7.05-3.464-14.992-6.642-21.938
					c-5.27-11.512-16.89-8.577-17.788-21.066C1342.929,1044.736,1353.957,1024.426,1359.022,1015.287z"/>
				<path style="fill:#463C3A;" d="M1371.345,1095.035c-0.524,0-1.05-0.074-1.568-0.221c-1.692-0.481-3.026-1.686-3.659-3.314
					c-1.293-3.305-2.151-6.812-2.98-10.202c-0.962-3.936-1.958-8.006-3.628-11.656c-2.196-4.791-5.609-6.857-8.908-8.855
					c-4.166-2.521-8.473-5.128-9.019-12.754c-0.071-0.99-0.289-4.004,16.054-33.514c1.777-3.209,5.863-4.409,9.095-2.683
					c0.985,0.526,98.633,52.599,98.854,52.732c3.518,2.131,4.78,6.667,2.881,10.332c-3.364,6.492-11.798,11.116-20.506,11.246
					c-4.544,0.023-9.729-1.09-15.168-2.315c-15.304-3.45-34.344-7.737-58.058,10.063
					C1373.736,1094.644,1372.553,1095.035,1371.345,1095.035z M1360.405,1016.052c-11.6,20.942-15.689,30.201-15.669,31.766
					c0.43,5.983,3.551,7.873,7.505,10.264c3.534,2.142,7.544,4.568,10.145,10.244c1.794,3.925,2.827,8.142,3.823,12.222
					c0.806,3.288,1.638,6.69,2.852,9.803c0.272,0.696,0.849,1.214,1.579,1.421c0.758,0.218,1.562,0.073,2.196-0.408
					c24.886-18.675,45.553-14.025,60.653-10.618c5.479,1.234,10.188,2.34,14.427,2.236c7.474-0.11,14.936-4.123,17.744-9.536
					c1.135-2.191,0.388-4.902-1.706-6.169c-0.722-0.394-75.968-40.524-98.71-52.65
					C1363.523,1013.706,1361.353,1014.346,1360.405,1016.052L1360.405,1016.052z"/>
			</g>
			<g id="XMLID_334_">
				<path style="fill:#FFFFFF;" d="M1463.246,1073.808c-0.662,0-1.336-0.156-1.964-0.487l-99.7-52.546
					c-2.057-1.086-2.847-3.636-1.763-5.696c1.087-2.058,3.634-2.847,5.697-1.763l99.7,52.546c2.058,1.087,2.847,3.636,1.763,5.697
					C1466.223,1072.99,1464.76,1073.808,1463.246,1073.808z"/>
			</g>
			<g id="XMLID_333_">
				<path style="fill:#FFFFFF;" d="M1394.881,1081.047c-0.733,0-1.392-0.515-1.545-1.265c-0.97-4.734-4.98-8.756-9.004-12.466
					c-0.643-0.594-0.682-1.593-0.09-2.236c0.597-0.64,1.593-0.679,2.236-0.09c4.401,4.064,8.798,8.501,9.955,14.158
					c0.176,0.855-0.376,1.689-1.231,1.865C1395.093,1081.036,1394.989,1081.047,1394.881,1081.047z"/>
			</g>
			<g id="XMLID_332_">
				<path style="fill:#FFFFFF;" d="M1408.963,1079.309c-0.068,0-0.136-0.006-0.204-0.014c-0.866-0.11-1.477-0.903-1.367-1.769
					c0.504-3.939-2.717-8.042-6.356-12.248c-0.569-0.66-0.498-1.658,0.164-2.23c0.651-0.569,1.653-0.504,2.23,0.164
					c4.123,4.768,7.768,9.48,7.098,14.715C1410.426,1078.726,1409.746,1079.309,1408.963,1079.309z"/>
			</g>
			<g id="XMLID_331_">
				<path style="fill:#FFFFFF;" d="M1423.05,1079.909c-0.147,0-0.294-0.023-0.444-0.065c-0.838-0.244-1.319-1.124-1.073-1.962
					c0.458-1.573-1.777-6.118-5.094-10.346c-0.538-0.688-0.416-1.681,0.269-2.221c0.691-0.535,1.675-0.419,2.222,0.269
					c1.621,2.071,6.823,9.138,5.637,13.187C1424.366,1079.462,1423.735,1079.909,1423.05,1079.909z"/>
			</g>
		</g>
	</g>
	<g id="XMLID_318_">
		<path id="XMLID_326_" style="fill:#FBA584;" d="M835.215,1741.05c18.967,20.188,36.514,16.02,36.514,16.02l6.466-76.066
			l-44.813,4.01C833.383,1685.014,834.886,1728.244,835.215,1741.05z"/>
		<g id="XMLID_319_">
			<g id="XMLID_325_">
				<path style="fill:#514342;" d="M880.066,1789.508c0.047,2.83-2.18,5.166-5.009,5.258c-22.452,0.734-111.738,3.655-111.902,3.651
					c-3.302-0.073-5.956-2.704-6.102-6.003c-0.316-7.125,4.88-14.675,11.384-18.552c14.467-8.621,44.032-6.157,60.227-44.002
					c1.047-2.447,4.145-3.281,6.222-1.617c5.907,4.733,10.485,11.262,16.707,15.694c10.313,7.344,18.916-0.999,25.929,9.375
					C879.31,1755.958,879.893,1779.061,880.066,1789.508z"/>
				<path style="fill:#463C3A;" d="M763.128,1800c-4.112-0.094-7.471-3.393-7.655-7.514c-0.323-7.307,4.675-15.522,12.154-19.982
					c3.95-2.355,8.979-3.914,14.302-5.57c14.976-4.65,33.614-10.434,45.278-37.697c0.704-1.644,2.102-2.838,3.84-3.271
					c1.701-0.43,3.461-0.048,4.825,1.044c2.77,2.218,5.26,4.825,7.672,7.349c2.798,2.929,5.696,5.96,8.965,8.289
					c4.296,3.059,8.283,3.144,12.14,3.229c4.867,0.108,9.899,0.215,14.18,6.548c0.558,0.826,2.258,3.342,2.816,37.058
					c0.062,3.662-2.872,6.744-6.54,6.862l-25.376,0.829C771.754,1799.725,763.301,1800,763.128,1800z M832.416,1728.958
					c-0.198,0-0.399,0.026-0.597,0.074c-0.77,0.195-1.39,0.722-1.701,1.452c-12.24,28.605-32.476,34.887-47.251,39.472
					c-5.362,1.667-9.992,3.104-13.62,5.266c-6.418,3.826-10.884,11.028-10.615,17.124c0.11,2.465,2.111,4.437,4.556,4.494
					c0.62-0.017,52.265-1.707,86.439-2.822l25.378-0.829c1.95-0.065,3.512-1.704,3.478-3.651
					c-0.393-23.93-1.474-33.998-2.278-35.348c-3.359-4.97-7.007-5.049-11.622-5.151c-4.134-0.09-8.818-0.192-13.906-3.814
					c-3.515-2.502-6.515-5.643-9.418-8.682c-2.338-2.445-4.757-4.978-7.36-7.063
					C833.471,1729.136,832.954,1728.958,832.416,1728.958z"/>
			</g>
			<g id="XMLID_324_">
				<path style="fill:#FFFFFF;" d="M762.644,1798.696c-2.255,0-4.123-1.786-4.211-4.058c-0.088-2.326,1.729-4.284,4.055-4.372
					l112.619-4.234c2.371-0.011,4.284,1.729,4.372,4.055c0.088,2.326-1.729,4.284-4.055,4.372l-112.619,4.233
					C762.752,1798.692,762.698,1798.696,762.644,1798.696z"/>
			</g>
			<g id="XMLID_323_">
				<path style="fill:#FFFFFF;" d="M831.819,1760.183c-0.116,0-0.235-0.014-0.351-0.04c-5.841-1.322-11.866-2.971-15.694-7.298
					c-0.58-0.654-0.518-1.652,0.136-2.23c0.648-0.577,1.65-0.52,2.23,0.136c3.206,3.62,8.688,5.102,14.025,6.308
					c0.852,0.192,1.387,1.039,1.194,1.891C833.191,1759.685,832.54,1760.183,831.819,1760.183z"/>
			</g>
			<g id="XMLID_321_">
				<path style="fill:#FFFFFF;" d="M818.187,1770.238c-0.173,0-0.348-0.028-0.521-0.091c-5.954-2.074-11.467-4.344-13.499-9.208
					c-0.337-0.804,0.042-1.732,0.849-2.066c0.798-0.34,1.732,0.04,2.066,0.849c1.531,3.661,6.373,5.609,11.625,7.442
					c0.824,0.286,1.259,1.189,0.971,2.012C819.452,1769.828,818.841,1770.238,818.187,1770.238z"/>
			</g>
			<g id="XMLID_320_">
				<path style="fill:#FFFFFF;" d="M803.638,1775.943c-0.198,0-0.396-0.037-0.591-0.116c-2.437-0.982-10.471-4.508-11.467-8.611
					c-0.206-0.849,0.314-1.704,1.163-1.91c0.86-0.206,1.707,0.32,1.91,1.163c0.388,1.596,4.593,4.418,9.576,6.427
					c0.809,0.326,1.2,1.248,0.874,2.057C804.855,1775.569,804.264,1775.943,803.638,1775.943z"/>
			</g>
		</g>
	</g>
	<g id="XMLID_20_">
		<path style="fill:#637690;" d="M825.869,1714.101c26.405,1.035,31.006,11.833,56.698,13.188c4.981,0.263,9.276-3.482,9.683-8.453
			c14.863-181.109,32.904-383.885,39.728-571.417c0.079-2.167,3.011-2.744,3.92-0.776
			c51.177,110.909,101.82,224.437,125.546,253.551c27.704,33.994,83.242,31.802,119.545,7.202
			c45.79-31.028,83.955-99.754,180.472-284.608c1.358-2.6,1.426-5.718,0.167-8.367c-10.688-22.492-23.595-33.986-42.25-47.776
			c-3.436-2.54-8.183-2.418-11.467,0.317c-54.512,45.401-107.338,97.469-141.704,159.311c-2.11,3.797-7.204,4.526-10.426,1.613
			c-29.916-27.045-30.364-76.092-46.261-114.65c-19.663-47.691-65.407-110.882-108.811-255.48
			c-1.313-4.373-5.615-7.087-10.142-6.493c-34.009,4.465-177.041-15.307-182.387-1.75c-14.488,36.737-26.32,134.664-28.143,179.578
			c-9.648,237.616,8.074,452.422,37.104,676.931C817.716,1710.466,821.392,1713.926,825.869,1714.101z"/>
		<path style="fill:#3B3348;" d="M883.077,1728.882c-0.198,0-0.394-0.003-0.592-0.014c-12.89-0.679-20.67-3.727-28.194-6.67
			c-7.884-3.087-15.327-5.999-28.483-6.517c-5.247-0.204-9.551-4.182-10.236-9.454c-34.465-266.548-45.564-469.076-37.114-677.201
			c1.952-48.13,14.218-144.507,28.251-180.093c3.328-8.437,41.376-6.403,103.642-2.046c34.018,2.381,66.152,4.63,80.01,2.808
			c5.363-0.696,10.329,2.5,11.863,7.607c30.902,102.949,62.745,164.097,85.992,208.748c9.174,17.616,17.096,32.833,22.766,46.586
			c5.459,13.241,9.149,27.855,12.715,41.988c7.083,28.07,13.776,54.58,33.147,72.092c1.208,1.095,2.827,1.579,4.403,1.307
			c1.526-0.252,2.83-1.169,3.58-2.516c29.236-52.616,74.381-103.379,142.072-159.756c3.854-3.212,9.373-3.365,13.42-0.374
			c20.194,14.928,32.349,26.508,42.737,48.366c1.463,3.088,1.392,6.741-0.196,9.78c-97.289,186.335-135.399,254.295-180.986,285.183
			c-35.793,24.258-92.487,28.285-121.655-7.511c-20.819-25.542-62.286-115.796-106.186-211.351
			c-6.478-14.099-13.02-28.338-19.572-42.536c-0.105-0.232-0.277-0.322-0.532-0.274c-0.238,0.048-0.365,0.198-0.374,0.444
			c-5.994,164.737-20.324,337.434-34.185,504.447c-1.879,22.625-3.736,44.992-5.544,67.043
			C893.363,1724.631,888.694,1728.882,883.077,1728.882z M835.37,846.263c-14.444,0-24.604,1.002-25.718,3.829
			c-13.918,35.288-26.092,131.145-28.036,179.064c-8.442,207.935,2.651,410.301,37.091,676.663c0.487,3.738,3.523,6.56,7.225,6.704
			c13.686,0.538,21.731,3.685,29.51,6.73c7.627,2.986,14.829,5.804,27.207,6.458c4.194,0.223,7.683-2.858,8.026-7.004
			c1.811-22.048,3.668-44.421,5.544-67.046c13.858-166.975,28.189-339.633,34.18-504.296c0.062-1.718,1.231-3.096,2.912-3.433
			c1.681-0.325,3.3,0.487,4.021,2.052c6.554,14.198,13.097,28.441,19.575,42.542c43.815,95.365,85.2,185.44,105.764,210.672
			c28.047,34.409,82.792,30.365,117.433,6.894c44.978-30.481,82.938-98.22,179.956-284.034c1.13-2.162,1.183-4.763,0.139-6.956
			c-10.097-21.256-21.985-32.567-41.758-47.183c-2.87-2.12-6.786-2.018-9.514,0.26c-67.386,56.12-112.296,106.6-141.336,158.862
			c-1.22,2.196-3.342,3.69-5.827,4.1c-2.544,0.428-5.114-0.336-7.041-2.082c-20.081-18.151-27.201-46.371-34.089-73.66
			c-3.54-14.025-7.199-28.528-12.57-41.557c-5.62-13.626-13.51-28.78-22.651-46.331c-23.307-44.76-55.225-106.063-86.216-209.299
			c-1.084-3.612-4.584-5.885-8.422-5.38c-14.181,1.861-46.461-0.398-80.644-2.79C885.794,848.337,856.15,846.263,835.37,846.263z"/>
	</g>
	<g id="XMLID_393_">
		<g id="XMLID_385_">
			<path style="fill:#3B3348;" d="M878.342,1713.753c-0.951-0.045-1.622-0.787-1.58-1.658
				c10.655-217.11,25.136-396.081,45.573-563.235c0.108-0.866,0.903-1.444,1.763-1.378c0.866,0.108,1.483,0.897,1.375,1.763
				c-20.429,167.074-34.904,345.975-45.553,563.003C879.879,1713.094,879.18,1713.753,878.342,1713.753z"/>
		</g>
		<g id="XMLID_386_">
			<path style="fill:#3B3348;" d="M930.842,1137.076c-0.52,0-1.041-0.17-1.486-0.501c-11.419-8.535-23.718-16.026-36.551-22.257
				c-0.787-0.382-1.112-1.33-0.733-2.114c0.385-0.784,1.324-1.109,2.114-0.733c12.485,6.064,24.473,13.304,35.654,21.527
				c-3.04-19.356,5.348-41.716,22.172-58.791c6.834-6.939,14.605-12.87,23.095-17.628c0.759-0.436,1.724-0.156,2.151,0.606
				c0.427,0.761,0.156,1.724-0.606,2.15c-8.229,4.613-15.762,10.363-22.387,17.09c-16.606,16.852-24.66,38.959-21.02,57.69
				c0.201,1.022-0.235,2.034-1.107,2.584C931.74,1136.952,931.29,1137.076,930.842,1137.076z"/>
		</g>
		<g id="XMLID_387_">
			<path style="fill:#3B3348;" d="M923.906,1125.032c-0.603,0-1.178-0.348-1.44-0.934c-42.324-94.038-41.336-214.962-35.747-309.803
				c0.054-0.875,0.863-1.582,1.672-1.484c0.872,0.051,1.536,0.799,1.486,1.671c-5.569,94.48-6.568,214.908,35.47,308.32
				c0.36,0.795,0.006,1.732-0.792,2.088C924.345,1124.987,924.125,1125.032,923.906,1125.032z"/>
		</g>
		<g id="XMLID_388_">
			<path style="fill:#3B3348;" d="M1160.653,1250.852c-1.664,0-3.348-0.19-5.031-0.62c-4.389-1.124-8.206-3.77-11.679-6.458
				c-38.438-29.81-57.611-76.51-76.153-121.674c-2.892-7.044-5.773-14.062-8.713-20.987c-7.292-17.166-15.369-34.522-23.177-51.303
				c-25.534-54.873-51.934-111.613-56.188-172.514c-0.062-0.872,0.594-1.627,1.466-1.688c0.781-0.024,1.627,0.593,1.686,1.467
				c4.214,60.318,30.489,116.789,55.902,171.399c7.819,16.807,15.907,34.188,23.219,51.405c2.946,6.934,5.832,13.963,8.73,21.021
				c18.383,44.78,37.391,91.083,75.162,120.376c3.702,2.866,6.911,4.966,10.53,5.894c7.089,1.817,14.484-1.449,19.433-4.511
				c17.551-10.847,27.608-30.13,37.334-48.779c1.97-3.778,3.934-7.541,5.949-11.22c21.374-39.047,52.274-72.697,89.354-97.314
				c0.727-0.484,1.709-0.286,2.19,0.442c0.484,0.727,0.286,1.709-0.441,2.19c-36.656,24.337-67.199,57.602-88.33,96.2
				c-2.006,3.662-3.959,7.406-5.92,11.167c-9.925,19.028-20.186,38.702-38.472,50.004
				C1173.158,1248.034,1167.068,1250.852,1160.653,1250.852z"/>
		</g>
		<g id="XMLID_390_">
			<path style="fill:#3B3348;" d="M895.461,1028.988c-0.464,0-0.926-0.204-1.237-0.597c-22.891-28.742-46.804-77.559-28.384-200.959
				c0.133-0.865,0.979-1.45,1.797-1.33c0.866,0.129,1.46,0.934,1.333,1.797c-18.242,122.195,5.235,170.282,27.728,198.523
				c0.543,0.682,0.43,1.678-0.252,2.222C896.154,1028.875,895.805,1028.988,895.461,1028.988z"/>
		</g>
		<g id="XMLID_392_">
			<path style="fill:#3B3348;" d="M834.4,1434.493c-0.201,0-0.405-0.04-0.6-0.119c-28.936-11.891-39.862-40.499-49.506-65.736
				c-0.772-2.024-1.54-4.032-2.309-6.016c-0.314-0.812,0.088-1.729,0.903-2.046c0.807-0.323,1.729,0.09,2.046,0.902
				c0.77,1.99,1.539,4.002,2.315,6.031c9.874,25.843,20.084,52.568,47.752,63.939c0.81,0.334,1.194,1.256,0.863,2.063
				C835.611,1434.122,835.022,1434.493,834.4,1434.493z"/>
		</g>
	</g>
	<g id="XMLID_364_">
		<path id="XMLID_363_" style="fill:#FBA584;" d="M544.128,274.122c-21.756-35.781-12.694-53.098-3.804-51.911
			c-0.498-1.919-0.409-3.978,0.206-5.861c0.541-1.657,2.398-2.486,4.068-1.988c8.534,2.546,5.782-6.951,9.706-7.994
			c1.424-0.379,2.865,0.588,4.338,0.582c3.242-0.014,4.601-4.236,7.368-5.926c9.059-5.531,13.69,12.994,16.651,16.451
			c27.865,32.526-11.496,23.45,21.422,146.306c3.073,11.471,3.706,18.771-26.042,23.816c-10.866,1.842-12.459-3.615-13.397-13.254
			C557.232,298.165,562.21,303.861,544.128,274.122z"/>
		<g id="XMLID_358_">
			<path id="XMLID_362_" style="fill:#FBA584;" d="M582.904,219.007c-13.985-5.666-17.886-1.515-21.147,6.467
				c-4.348,10.644,7.015,16.112,15.295,0.826L582.904,219.007z"/>
			<path id="XMLID_361_" style="fill:#FBA584;" d="M533.343,235.438c8.862,16.557,16.61,23.902,11.939,5.796
				c-1.124-4.356-2.247-8.711-3.37-13.066C537.875,229.425,535.658,231.098,533.343,235.438z"/>
			<path id="XMLID_360_" style="fill:#FBA584;" d="M542.096,227.768c-0.422,0.564-0.456,1.348-0.119,1.966
				c8.627,15.829,15.96,22.501,11.386,4.772c-1.124-4.355-2.247-8.711-3.37-13.066C546.668,223.27,544.42,224.664,542.096,227.768z"
				/>
			<path id="XMLID_359_" style="fill:#FBA584;" d="M547.558,223.703c8.862,16.557,16.61,23.902,11.939,5.796l-2.811-10.898
				c-0.28-1.086-1.53-1.6-2.492-1.025C551.833,218.986,549.761,220.416,547.558,223.703z"/>
		</g>
	</g>
	<g id="XMLID_38_">
		<path style="fill:#3B3348;" d="M604.621,294.91c23.645,123.048,30.703,157.3,34.231,168.727c1.346,4.36,4.519,7.89,8.688,9.744
			c20.143,8.962,98.861,44.841,158.995,84.315c85.044,55.826-4.355,132.087-19.052,129.641
			c-24.628-4.099-40.37-54.764-61.646-67.828c-133.408-81.914-159.443-51.303-168.167-119.953
			c-1.578-12.419-12.419-159.128-9.019-198.35c0.27-3.11,2.164-5.864,5.018-7.128c13.594-6.02,29.74-7.316,43.193-6.157
			C600.721,288.254,603.89,291.106,604.621,294.91z"/>
		<path style="fill:#637690;" d="M788.148,688.968c-0.328,0-0.637-0.024-0.926-0.072c-14.642-2.436-26.004-20.11-36.992-37.203
			c-8.385-13.043-16.306-25.363-25.22-30.838c-51.824-31.821-88.083-46.904-112.075-56.885
			c-38.438-15.992-51.388-21.38-56.833-64.215c-1.622-12.742-12.395-159.827-9.028-198.686c0.323-3.719,2.604-6.952,5.954-8.436
			c16.566-7.34,34.658-7.093,43.968-6.287c4.545,0.392,8.317,3.791,9.177,8.265c22.552,117.352,30.538,156.735,34.188,168.56
			c1.203,3.895,4.056,7.09,7.822,8.764c22.277,9.913,99.592,45.298,159.219,84.438c41.885,27.496,40.677,58.834,32.286,80.28
			C828.477,665.316,798.53,688.967,788.148,688.968z M587.794,289.118c-9.387,0-21.853,1.255-33.486,6.407
			c-2.295,1.017-3.86,3.247-4.081,5.818c-3.357,38.686,7.394,185.308,9.01,198.014c5.213,41.018,16.736,45.812,54.912,61.695
			c24.085,10.019,60.478,25.159,112.514,57.11c9.531,5.852,17.642,18.466,26.225,31.822c10.618,16.513,21.595,33.588,34.856,35.794
			c6.656,1.095,37.194-20.095,49.003-50.275c7.963-20.358,9.036-50.152-31.081-76.485c-59.422-39.009-136.546-74.305-158.766-84.192
			c-4.602-2.044-8.085-5.952-9.559-10.721c-3.733-12.098-11.419-49.98-34.273-168.896c-0.592-3.093-3.201-5.442-6.342-5.712
			C594.299,289.288,591.255,289.118,587.794,289.118z"/>
	</g>
	<g id="XMLID_486_">
		<path style="fill:#637690;" d="M788.1,679.21c-0.065,0-0.13-0.003-0.195-0.011c-0.866-0.106-1.483-0.896-1.376-1.762
			c2.68-21.856-9.33-44.371-36.718-68.833c-30.608-27.333-61.015-39.288-87.843-49.834c-63.078-24.8-108.654-42.719-102.751-228.809
			c0.028-0.873,0.824-1.497,1.63-1.531c0.872,0.028,1.556,0.758,1.528,1.63c-5.83,183.864,38.874,201.439,100.75,225.766
			c27.074,10.645,57.761,22.71,88.791,50.421c28.22,25.202,40.567,48.615,37.748,71.575
			C789.568,678.622,788.886,679.21,788.1,679.21z"/>
	</g>
	<g id="XMLID_337_">
		<path id="XMLID_356_" style="fill:#FBA584;" d="M1413.542,400.931c40.242-11.584,45.306-30.462,37.962-35.61
			c1.667-1.074,2.995-2.649,3.819-4.451c0.724-1.585-0.08-3.453-1.646-4.218c-8.002-3.909,0.455-9.03-1.725-12.456
			c-0.791-1.242-2.506-1.507-3.585-2.51c-2.376-2.206-0.515-6.234-1.406-9.35c-2.917-10.206-18.872,0.285-23.392,0.822
			c-42.531,5.052-7.428,25.038-114.866,93.114c-10.031,6.356-15.442,11.298,3.024,35.16c6.745,8.716,11.613,5.78,18.833-0.675
			C1387.616,409.742,1380.095,410.559,1413.542,400.931z"/>
		<g id="XMLID_338_">
			<path id="XMLID_342_" style="fill:#FBA584;" d="M1422.352,334.121c14.126,5.306,14.184,11.001,11.176,19.082
				c-4.012,10.776-16.074,7.1-11.81-9.753L1422.352,334.121z"/>
			<path id="XMLID_341_" style="fill:#FBA584;" d="M1447.681,379.78c-17.735,6.176-28.41,6.332-12.709-3.824
				c3.777-2.443,7.554-4.886,11.33-7.329C1448.419,372.286,1448.917,375.02,1447.681,379.78z"/>
			<path id="XMLID_340_" style="fill:#FBA584;" d="M1446.437,368.208c-0.072,0.7-0.578,1.3-1.244,1.527
				c-17.068,5.8-26.982,5.741-11.608-4.203c3.777-2.443,7.553-4.886,11.33-7.329C1446.12,361.803,1446.83,364.351,1446.437,368.208z
				"/>
			<path id="XMLID_339_" style="fill:#FBA584;" d="M1445.172,361.518c-17.735,6.177-28.41,6.332-12.709-3.824l9.45-6.112
				c0.941-0.609,2.209-0.141,2.528,0.934C1445.224,355.153,1445.778,357.608,1445.172,361.518z"/>
		</g>
	</g>
	<g id="XMLID_265_">
		<path style="fill:#3B3348;" d="M1384.538,413.309c2.337,4.588,1.736,10.14-1.393,14.228
			c-109.268,142.75-172.974,186.42-251.13,231.43c-89.504,51.545-87.254,96.946-111.741,96.331
			c-48.7-1.223-77.85-115.91-3.503-154.636c59.571-31.03,111.257-28.176,161.164-73.131
			c50.908-45.856,119.891-118.304,167.786-142.863c3.882-1.991,8.503-1.924,12.366,0.101
			C1368.722,390.343,1378.171,400.806,1384.538,413.309z"/>
		<path style="fill:#637690;" d="M1020.788,756.886c-0.184,0-0.368-0.003-0.552-0.007c-21.117-0.53-40.165-21.871-47.398-53.104
			c-7.819-33.759-1.194-81.386,43.204-104.514c23.579-12.283,45.822-19.25,67.332-25.988c32.657-10.23,63.506-19.892,93.503-46.915
			c12.876-11.597,26.768-24.768,41.48-38.709c42.5-40.284,90.673-85.943,126.641-104.387c4.31-2.21,9.48-2.166,13.821,0.108
			c10.615,5.564,20.502,16.215,27.127,29.223c2.581,5.066,1.976,11.31-1.545,15.907
			c-110.482,144.334-173.968,187.131-251.598,231.838c-52.469,30.218-72.898,57.857-86.417,76.147
			C1037.023,749.154,1031.31,756.886,1020.788,756.886z M1351.779,384.794c-1.839,0-3.67,0.426-5.337,1.281
			c-35.566,18.237-83.564,63.731-125.911,103.867c-14.724,13.957-28.633,27.14-41.537,38.764
			c-30.512,27.484-61.678,37.247-94.674,47.584c-21.38,6.697-43.484,13.623-66.817,25.776
			c-42.794,22.291-49.147,68.338-41.585,100.996c6.905,29.806,24.745,50.163,44.398,50.657c0.15,0.004,0.3,0.006,0.45,0.006
			c8.948,0,14.011-6.848,23.081-19.119c13.674-18.502,34.338-46.461,87.379-77.007c77.31-44.521,140.541-87.154,250.664-231.02
			c2.785-3.636,3.272-8.563,1.24-12.551c-6.334-12.437-15.729-22.591-25.775-27.856
			C1355.605,385.254,1353.686,384.794,1351.779,384.794z"/>
	</g>
	<g id="XMLID_485_">
		<path style="fill:#637690;" d="M1009.004,740.439c-0.088,0-0.175-0.007-0.263-0.022c-0.86-0.143-1.443-0.956-1.299-1.818
			c3.815-22.976,22.727-35.444,64.165-62.762c43.439-28.637,109.082-71.913,208.787-159.162
			c28.268-24.736,60.469-54.092,84.878-89.514c0.492-0.718,1.471-0.902,2.199-0.405c0.718,0.496,0.9,1.48,0.404,2.199
			c-24.614,35.722-56.988,65.238-85.398,90.1c-99.87,87.39-165.62,130.737-209.13,159.421
			c-40.646,26.796-59.196,39.026-62.787,60.641C1010.434,739.891,1009.763,740.439,1009.004,740.439z"/>
	</g>
	<g id="XMLID_21_">
		<path style="fill:#FFFFF7;" d="M806.535,557.697c9.998-2.957,27.977-5.364,48.382-6.685c1.734-0.112,3.263,1.205,3.356,2.94
			c1.354,25.21,12.886,73.992,34.149,78.413c21.263,4.422,52.256-35.518,71.082-55.931c0.885-0.96,2.266-1.305,3.485-0.837
			c27.899,10.71,34.443,14.932,49.782,25.065c6.979,139.48,21.169,275.381-2.913,297.429c-9.531,8.726-77.994-11.57-116.316-14.454
			c-39.767-2.992-83.814,16.618-118.282,14.544C766.894,866.711,785.538,566.923,806.535,557.697z"/>
		<path style="fill:#EEE4D9;" d="M1003.942,901.822c-10.878,0-28.605-3.239-52.407-7.876c-19.172-3.734-38.996-7.596-54.111-8.733
			c-20.638-1.542-42.516,3.065-63.675,7.529c-19.535,4.123-37.96,8.016-54.586,7.017l-1.008-0.061l-0.368-0.938
			c-11.925-30.35,4.63-332.192,28.11-342.511l0.19-0.068c9.876-2.922,27.64-5.381,48.728-6.746c1.254-0.085,2.507,0.34,3.466,1.191
			c0.946,0.839,1.503,1.989,1.571,3.242c1.285,23.951,12.588,72.728,32.892,76.95c17.268,3.606,42.245-24.68,60.509-45.314
			c3.249-3.67,6.302-7.118,9.09-10.141c1.338-1.456,3.379-1.948,5.213-1.241c28.421,10.909,35.21,15.394,50.089,25.221l0.668,0.44
			l0.04,0.799c1.333,26.659,2.929,53.176,4.474,78.821c6.781,112.585,12.135,201.51-7.901,219.852
			C1012.977,901.04,1009.285,901.822,1003.942,901.822z M888.977,881.744c2.909,0,5.807,0.1,8.685,0.316
			c15.298,1.152,35.215,5.03,54.476,8.783c27.283,5.315,55.483,10.808,60.653,6.082c18.921-17.323,13.34-110.01,6.879-217.331
			c-1.528-25.396-3.11-51.648-4.437-78.053c-14.645-9.673-21.131-13.841-48.81-24.467c-0.603-0.231-1.305-0.058-1.755,0.432
			c-2.776,3.008-5.815,6.442-9.047,10.094c-18.782,21.213-44.514,50.269-63.523,46.314c-22.237-4.625-34.032-54.306-35.404-79.876
			c-0.02-0.402-0.204-0.774-0.512-1.047c-0.322-0.287-0.73-0.433-1.163-0.401c-20.788,1.346-38.243,3.747-47.93,6.591
			c-8.439,4.089-18.524,68.499-25.126,160.53c-6.13,85.489-6.764,160.62-1.565,176.948c15.884,0.747,33.792-3.021,52.698-7.009
			C851.555,885.754,870.555,881.744,888.977,881.744z"/>
	</g>
	<g id="XMLID_198_">
		<g id="XMLID_190_">
			<path style="fill:#EEE4D9;" d="M839.833,636.052c-0.288,0-0.58-0.054-0.866-0.163c-1.279-0.485-2.083-1.917-2.286-3.043
				c-8.207-45.104-5.98-53.452,1.395-81.114c0.226-0.84,1.089-1.341,1.936-1.121c0.843,0.225,1.344,1.093,1.12,1.936
				c-7.219,27.072-9.304,34.897-1.989,76.133c1.888-18.292,8.722-25.311,14.39-27.94c5.903-2.741,12.528-1.434,16.023,1.272
				c0.69,0.535,0.818,1.527,0.283,2.217c-0.538,0.692-1.531,0.814-2.219,0.282c-2.216-1.716-7.44-3.371-12.757-0.903
				c-5.414,2.51-12.055,9.883-12.961,30.75l-0.031,0.729l-0.574,0.448C840.86,635.877,840.354,636.052,839.833,636.052z"/>
		</g>
		<g id="XMLID_192_">
			<path style="fill:#EEE4D9;" d="M935.036,656.051c-0.283,0-0.566-0.038-0.84-0.12c-0.824-0.248-1.418-0.869-1.63-1.702
				l-0.181-0.705l0.419-0.597c12.013-17.086,11.246-26.98,8.487-32.272c-2.706-5.187-7.839-7.066-10.643-7.066
				c-0.894,0-1.602-0.704-1.604-1.576c-0.003-0.886,0.665-1.628,1.607-1.585c4.415,0,10.44,3.006,13.442,8.767
				c2.89,5.541,4.024,15.27-5.637,30.914c30.953-28.214,34.072-35.685,44.865-61.539c0.337-0.806,1.268-1.186,2.066-0.85
				c0.807,0.337,1.186,1.262,0.849,2.067c-11.025,26.417-14.353,34.391-48.371,65.128
				C937.193,655.52,936.109,656.05,935.036,656.051z"/>
		</g>
		<g id="XMLID_196_">
			<path style="fill:#EEE4D9;" d="M886.568,884.29c-0.076,0-0.152-0.004-0.229-0.016c-0.863-0.125-1.463-0.925-1.338-1.79
				c3.523-24.484,0.402-39.962-3.212-57.886c-6.647-32.972-14.922-74.007,9.084-192.546c0.173-0.858,0.999-1.402,1.862-1.235
				c0.854,0.174,1.409,1.008,1.234,1.864c-23.879,117.912-15.672,158.6-9.081,191.293c3.673,18.21,6.845,33.938,3.243,58.961
				C888.018,883.722,887.341,884.29,886.568,884.29z"/>
		</g>
	</g>
	<g id="XMLID_366_">
		<path style="fill:#3B3348;" d="M753.613,1048.572c-9.887,5.831-22.53,0.457-25.343-10.672
			c-22.702-89.83,12.691-187.364,23.856-273.666c10.373-80.172,29.785-199.602,45.505-212.27c0.381-0.307,49.236-9.084,52.027-7.302
			c0,0-19.904,57.289-19.524,159.805C831.114,968.612,874.352,977.368,753.613,1048.572z"/>
		<path style="fill:#637690;" d="M744.955,1052.541c-2.428,0-4.87-0.484-7.202-1.455c-5.526-2.306-9.542-6.97-11.016-12.799
			c-16.436-65.037-2.702-133.486,10.578-199.682c5.207-25.957,10.126-50.475,13.244-74.573
			c4.25-32.842,26.446-197.475,46.08-213.298c0.294-0.235,50.063-9.835,53.872-7.403l1.05,0.671l-0.407,1.178
			c-0.198,0.572-19.81,58.266-19.436,159.282c0.249,67.261,3.195,117.209,5.563,157.343c6.882,116.649,7.941,134.577-82.865,188.127
			C751.48,1051.664,748.229,1052.541,744.955,1052.541z M798.386,553.396c-13.55,11.928-32.179,114.336-44.693,211.04
			c-3.133,24.207-8.06,48.777-13.281,74.79c-13.21,65.85-26.87,133.943-10.609,198.285c1.225,4.854,4.567,8.739,9.166,10.658
			c4.554,1.893,9.593,1.542,13.838-0.959c89.144-52.57,88.1-70.243,81.317-185.219c-2.372-40.173-5.32-90.169-5.572-157.518
			c-0.34-91.818,15.785-148.144,19.045-158.572C839.759,545.954,802.512,552.426,798.386,553.396z"/>
	</g>
	<g id="XMLID_367_">
		<path style="fill:#3B3348;" d="M957.264,817.088c-0.193,156.151,66.684,240.128,85.159,240.86c5.027,0.199,9.572-2.682,14.1-4.876
			c37.913-18.368,85.773,9.082,124.438-7.644c9.015-3.9,10.159-8.512,8.126-16.57c-23.88-94.676-145.226-88.171-159.553-260.854
			c-10.23-123.301,6.336-118-2.216-172.534c-23.989-11.845-25.66-18.366-55.727-24.828
			C962.964,718.786,957.264,759.415,957.264,817.088z"/>
		<path style="fill:#637690;" d="M1042.929,1059.537c-0.19,0-0.379-0.003-0.569-0.011c-10.737-0.424-32.731-24.125-50.95-63.056
			c-16.357-34.946-35.835-94.437-35.73-179.383c0-34.299,2.054-63.128,5.453-110.889c2.394-33.626,5.374-75.475,8.877-135.647
			l0.107-1.841l1.802,0.388c20.669,4.44,28.076,8.903,38.325,15.079c4.746,2.86,10.128,6.102,17.772,9.876l0.736,0.364l0.128,0.81
			c3.815,24.322,2.68,36.752,1.109,53.955c-1.93,21.136-4.573,50.084,1.121,118.693c8.467,102.077,54.75,141.294,95.588,175.894
			c27.832,23.584,54.122,45.86,63.922,84.703c2.035,8.073,1.234,13.968-9.033,18.408c-19.379,8.382-41.133,5.875-62.165,3.458
			c-21.304-2.454-43.331-4.986-62.21,4.16c-0.758,0.365-1.517,0.753-2.278,1.14
			C1051.173,1057.556,1047.287,1059.537,1042.929,1059.537z M973.062,572.582c-3.458,59.204-6.404,100.549-8.773,133.84
			c-3.396,47.691-5.445,76.478-5.445,110.666c-0.195,157.317,67.615,238.646,83.641,239.279c3.727,0.136,7.287-1.647,11.017-3.546
			c0.778-0.399,1.556-0.795,2.332-1.172c19.704-9.548,42.196-6.959,63.95-4.454c20.624,2.377,41.948,4.828,60.549-3.22
			c8.438-3.648,9.047-7.494,7.222-14.73c-9.548-37.861-35.464-59.82-62.9-83.066c-41.302-34.996-88.118-74.663-96.695-178.046
			c-5.714-68.883-3.056-97.988-1.118-119.241c1.534-16.786,2.646-28.966-0.959-52.37c-7.372-3.678-12.621-6.84-17.268-9.639
			C998.93,581.049,991.852,576.784,973.062,572.582z"/>
	</g>
	<g id="XMLID_370_">
		<path style="fill:#3B3348;" d="M837.126,604.404c7.93-31.655,16.413-40.545,23.792-59.981c1.172-3.087,5.73-26.253,1.909-24.691
			C856.148,522.461,823.565,539.254,837.126,604.404z"/>
		<path style="fill:#637690;" d="M836.983,611.479l-1.406-6.752c-13.793-66.286,19.781-83.65,26.652-86.458
			c0.897-0.37,1.842-0.202,2.513,0.454c3.271,3.189-1.704,24.568-2.346,26.261c-2.598,6.847-5.275,12.28-8.11,18.032
			c-5.164,10.479-10.502,21.316-15.627,41.77L836.983,611.479z M862.656,521.525c-7.55,3.384-34.632,19.651-25.268,75.724
			c4.647-16.526,9.423-26.219,14.062-35.63c2.799-5.683,5.445-11.051,7.992-17.756C860.692,540.563,863.321,525.297,862.656,521.525
			z"/>
	</g>
	<g id="XMLID_375_">
		<path style="fill:#3B3348;" d="M968.229,625.626c0.134-2.112-6.205-105.431,8.858-91.388c4.544,4.236,7.705,10.845,8.688,13.375
			C995.932,573.751,986.209,603.354,968.229,625.626z"/>
		<path style="fill:#637690;" d="M966.338,630.483l0.311-4.941c0.006-0.332-0.059-1.749-0.159-3.998
			c-3.348-76.351,2.032-87.841,6.373-89.842c1.163-0.534,3.034-0.734,5.3,1.381c4.534,4.225,7.842,10.764,9.084,13.96
			c9.452,24.322,2.804,54.071-17.789,79.577L966.338,630.483z M974.463,534.514c-0.099,0-0.19,0.019-0.277,0.058
			c-2.456,1.133-7.816,11.852-4.542,86.656c17.786-23.815,23.282-50.852,14.656-73.041c-1.064-2.745-4.168-8.948-8.292-12.792
			C975.555,534.971,974.949,534.514,974.463,534.514z"/>
	</g>
	<g id="XMLID_487_">
		<path style="fill:#637690;" d="M1173.999,1021.398c-0.391,0-0.784-0.144-1.09-0.436c-15.743-14.945-30.121-28.046-44.028-40.715
			c-78.221-71.26-121.307-110.513-112.638-223.006c0.068-0.872,0.857-1.528,1.698-1.455c0.872,0.067,1.523,0.828,1.455,1.698
			c-8.549,110.952,31.607,147.538,111.614,220.426c13.918,12.679,28.31,25.792,44.079,40.759c0.631,0.6,0.659,1.602,0.056,2.236
			C1174.834,1021.231,1174.418,1021.398,1173.999,1021.398z"/>
	</g>
	<g id="XMLID_489_">
		<path style="fill:#637690;" d="M752.109,1016.624c-0.662,0-1.276-0.419-1.5-1.078c-15.734-46.924-20.353-97.624-13.354-146.619
			c0.124-0.866,0.936-1.465,1.788-1.341c0.863,0.123,1.466,0.924,1.341,1.789c-6.928,48.509-2.357,98.707,13.224,145.164
			c0.278,0.829-0.17,1.726-0.996,2.004C752.446,1016.596,752.276,1016.624,752.109,1016.624z"/>
	</g>
	<g id="XMLID_494_">
		<circle id="XMLID_490_" style="fill:#637690;" cx="813.728" cy="711.835" r="10.411"/>
		<path id="XMLID_492_" style="fill:#637690;" d="M824.14,797.689c0,5.75-4.662,10.411-10.412,10.411s-10.412-4.661-10.412-10.411
			c0-5.75,4.662-10.412,10.412-10.412S824.14,791.938,824.14,797.689z"/>
		<path id="XMLID_493_" style="fill:#637690;" d="M824.14,883.542c0,5.75-4.662,10.411-10.412,10.411s-10.412-4.661-10.412-10.411
			c0-5.75,4.662-10.412,10.412-10.412S824.14,877.792,824.14,883.542z"/>
	</g>
</g>
</svg>
