<?xml version="1.0" encoding="utf-8"?>
<!-- Generator: Adobe Adobe Illustrator 24.2.0, SVG Export Plug-In . SVG Version: 6.00 Build 0)  -->
<svg version="1.1" xmlns="http://www.w3.org/2000/svg" xmlns:xlink="http://www.w3.org/1999/xlink" x="0px" y="0px" width="1080px"
	 height="1080px" viewBox="0 0 1080 1080" style="enable-background:new 0 0 1080 1080;" xml:space="preserve">
<style type="text/css">
	.st0{display:none;fill:none;stroke:#355534;stroke-width:11;stroke-miterlimit:10;}
	.st1{display:none;fill:none;stroke:#355534;stroke-width:10;stroke-miterlimit:10;}
	.st2{fill:#355534;}
	.st3{fill:#EAEDE4;stroke:#355534;stroke-width:20;stroke-miterlimit:10;}
</style>
<g id="Layer_1">
</g>
<g id="Layer_2">
</g>
<g id="Layer_3">
	<rect x="90" y="90" class="st0" width="900" height="900"/>
	<path class="st3" d="M90,990V90h745.61C920.88,90,990,159.12,990,244.39V990H90z"/>
	<g>
		<g>
			<path class="st2" d="M850.14,615.47c-1.28-46.01-12.25-89.56-30.91-128.61l-7.63-14.92L684.91,224.17l-38.42,75.11l-12.55,24.55
				l-1.05,2.03l-3.3,6.46c-0.18,0.37-0.69,0.39-0.91,0.05L620.53,320c0,0,0,0,0-0.01l-0.11-0.15L502.19,140L358.13,359.16
				c0.03-0.02,0.05-0.04,0.09-0.05c-0.05,0.03-0.11,0.09-0.15,0.15l-10.74,16.34l-2.43,3.68l-21.73,33.06l-31.29,47.6l-0.01,0.01
				l-41.49,63.09c-7.27,23.09-11.19,47.67-11.19,73.16c0,37.05,8.28,72.16,23.1,103.59c-4.93-17.79-7.72-36.47-8.1-55.74
				c-2.5-127.97,103.1-233,231.06-229.82c32.64,0.81,63.55,8.56,91.31,21.82C645.61,469,695.26,536.08,703.69,615.47
				c0.84,7.91,1.28,15.95,1.28,24.09c0,12.39-1.01,24.53-2.93,36.38c-0.3,1.84-0.62,3.68-0.96,5.51c-0.49,2.56-1.01,5.11-1.58,7.64
				c-2,8.94-4.53,17.68-7.57,26.17c-1.51,4.27-3.17,8.48-4.94,12.62c-0.25,0.58-0.5,1.17-0.75,1.74c-1.37,3.15-2.81,6.26-4.31,9.33
				c-1.36,2.76-2.78,5.48-4.24,8.16c-0.99,1.83-2.01,3.63-3.05,5.43c-1.05,1.81-2.12,3.6-3.21,5.37c-1.03,1.64-2.07,3.28-3.12,4.9
				c-1.46,2.23-2.95,4.42-4.48,6.58c-2.77,3.92-5.65,7.76-8.66,11.49c-1.09,1.35-2.21,2.68-3.32,4.01
				c-1.18,1.39-2.37,2.77-3.58,4.13c-1.95,2.19-3.92,4.35-5.96,6.47c-2.08,2.16-4.18,4.29-6.35,6.38
				c-7.02,6.76-14.46,13.07-22.3,18.88c-0.04,0.04-0.1,0.08-0.15,0.12c-4.26,3.15-8.64,6.15-13.12,9.01
				c-0.18,0.12-0.37,0.24-0.55,0.36c-0.09,0.05-0.17,0.11-0.26,0.16c-1.49,0.94-3.01,1.86-4.52,2.77c-3.86,2.3-7.79,4.5-11.79,6.57
				c-0.51,0.27-1.01,0.53-1.51,0.79c-6.19,3.16-12.55,6.04-19.07,8.63c-0.24,0.09-0.34,0.28-0.34,0.48c0,0.31,0.26,0.63,0.65,0.54
				c1.71-0.4,3.42-0.81,5.11-1.23c0.24-0.06,0.49-0.13,0.72-0.19c1.45-0.37,2.91-0.75,4.35-1.14c0.61-0.17,1.2-0.35,1.81-0.52
				c1.08-0.3,2.16-0.59,3.23-0.92c0.68-0.19,1.37-0.41,2.05-0.63c0.98-0.29,1.96-0.58,2.94-0.9c0.66-0.21,1.32-0.43,1.98-0.65
				c0.99-0.32,1.99-0.64,2.97-0.97c0.59-0.19,1.18-0.41,1.77-0.62c1.05-0.37,2.1-0.72,3.14-1.1c0.63-0.22,1.23-0.45,1.86-0.69
				c1.01-0.37,2.01-0.74,3.01-1.11c0.69-0.27,1.37-0.54,2.05-0.81c0.92-0.37,1.85-0.72,2.77-1.09c0.7-0.29,1.41-0.59,2.12-0.89
				c0.89-0.37,1.77-0.74,2.65-1.11c0.69-0.29,1.38-0.61,2.08-0.91c0.89-0.39,1.77-0.78,2.66-1.18c0.71-0.32,1.42-0.66,2.13-0.98
				c0.84-0.4,1.7-0.79,2.54-1.19c0.71-0.35,1.42-0.69,2.13-1.04c0.83-0.41,1.68-0.81,2.51-1.23c0.7-0.35,1.39-0.71,2.09-1.07
				c0.83-0.42,1.66-0.84,2.49-1.28c0.72-0.38,1.44-0.77,2.15-1.16c0.8-0.43,1.59-0.85,2.38-1.29c0.71-0.39,1.42-0.79,2.12-1.19
				c0.79-0.44,1.58-0.88,2.37-1.33c0.69-0.4,1.37-0.82,2.06-1.22c0.79-0.46,1.58-0.92,2.36-1.39c0.68-0.41,1.36-0.83,2.04-1.25
				c0.78-0.48,1.56-0.95,2.32-1.43c0.68-0.43,1.35-0.88,2.02-1.31c0.77-0.49,1.54-0.97,2.29-1.47c0.66-0.43,1.31-0.88,1.96-1.31
				c0.77-0.52,1.55-1.03,2.3-1.55c0.66-0.45,1.3-0.91,1.96-1.36c0.75-0.53,1.5-1.05,2.24-1.58c0.66-0.47,1.31-0.94,1.96-1.42
				c0.74-0.53,1.47-1.06,2.19-1.6c0.63-0.47,1.25-0.95,1.88-1.43c0.74-0.55,1.47-1.1,2.19-1.66c0.65-0.5,1.28-1.01,1.92-1.5
				c0.69-0.55,1.41-1.1,2.1-1.65c0.64-0.52,1.28-1.05,1.9-1.57c0.69-0.56,1.38-1.11,2.06-1.69c0.63-0.52,1.24-1.06,1.86-1.59
				c0.68-0.57,1.36-1.15,2.03-1.73c0.62-0.53,1.22-1.08,1.84-1.62c0.66-0.58,1.34-1.17,2-1.77c0.61-0.54,1.2-1.1,1.81-1.65
				c0.65-0.61,1.31-1.2,1.96-1.81c0.61-0.56,1.2-1.15,1.79-1.71c0.64-0.62,1.28-1.21,1.91-1.83c0.58-0.57,1.16-1.15,1.73-1.72
				c0.64-0.63,1.28-1.25,1.9-1.89c0.57-0.58,1.14-1.17,1.71-1.75c0.62-0.64,1.24-1.28,1.86-1.92c0.56-0.59,1.12-1.2,1.68-1.79
				c0.62-0.65,1.22-1.3,1.83-1.95l1.65-1.85c0.59-0.65,1.19-1.31,1.77-1.97c0.55-0.63,1.09-1.26,1.64-1.89
				c0.57-0.66,1.15-1.32,1.72-1.99c0.54-0.64,1.07-1.29,1.61-1.92c0.55-0.67,1.11-1.34,1.68-2.01c0.53-0.66,1.05-1.32,1.58-1.98
				c0.54-0.68,1.09-1.35,1.63-2.03c0.52-0.66,1.03-1.34,1.55-2l1.59-2.08c0.51-0.66,0.99-1.34,1.49-2.01
				c0.53-0.7,1.06-1.41,1.57-2.12c0.5-0.68,0.98-1.36,1.47-2.05c0.51-0.71,1.02-1.42,1.52-2.14c0.49-0.69,0.96-1.41,1.44-2.11
				c0.49-0.71,0.98-1.43,1.47-2.14c0.47-0.7,0.93-1.43,1.39-2.13c0.48-0.74,0.96-1.45,1.44-2.18c0.45-0.71,0.91-1.45,1.36-2.16
				c0.46-0.74,0.93-1.47,1.38-2.21c0.45-0.72,0.89-1.47,1.33-2.21c0.45-0.74,0.9-1.48,1.34-2.23c0.43-0.72,0.85-1.47,1.29-2.21
				c0.43-0.76,0.88-1.51,1.31-2.27c0.42-0.75,0.82-1.49,1.24-2.25c0.42-0.76,0.84-1.52,1.26-2.29c0.4-0.75,0.79-1.5,1.19-2.25
				c0.41-0.78,0.82-1.56,1.23-2.34c0.39-0.77,0.77-1.54,1.16-2.29c0.39-0.79,0.79-1.57,1.18-2.35c0.38-0.78,0.75-1.56,1.12-2.34
				c0.38-0.79,0.76-1.57,1.12-2.36c0.37-0.78,0.71-1.56,1.07-2.34c0.37-0.81,0.75-1.61,1.1-2.42c0.35-0.78,0.68-1.57,1.03-2.36
				c0.35-0.81,0.7-1.61,1.05-2.42c0.34-0.81,0.67-1.62,0.99-2.42c0.34-0.81,0.67-1.61,0.99-2.42c0.32-0.81,0.64-1.62,0.95-2.44
				c0.31-0.81,0.64-1.62,0.95-2.44c0.3-0.82,0.59-1.64,0.9-2.45c0.3-0.83,0.62-1.65,0.91-2.49c0.29-0.82,0.57-1.64,0.85-2.48
				c0.29-0.83,0.58-1.65,0.86-2.5c0.27-0.83,0.54-1.66,0.81-2.51c0.27-0.83,0.54-1.68,0.81-2.51c0.26-0.84,0.51-1.68,0.76-2.52
				c0.26-0.85,0.52-1.7,0.77-2.55c0.25-0.83,0.48-1.68,0.71-2.52c0.24-0.85,0.49-1.72,0.72-2.58c0.23-0.84,0.44-1.7,0.66-2.55
				c0.23-0.86,0.45-1.73,0.67-2.59c0.22-0.85,0.41-1.71,0.62-2.57c0.22-0.86,0.43-1.74,0.63-2.62c0.19-0.85,0.38-1.72,0.56-2.58
				c0.19-0.88,0.4-1.75,0.58-2.64c0.17-0.86,0.35-1.74,0.52-2.61c0.17-0.89,0.36-1.77,0.52-2.66c0.16-0.86,0.31-1.75,0.47-2.63
				c0.16-0.89,0.32-1.77,0.48-2.67c0.15-0.88,0.28-1.77,0.42-2.66c0.14-0.89,0.28-1.77,0.42-2.67c0.13-0.89,0.25-1.78,0.37-2.68
				c0.12-0.9,0.25-1.78,0.37-2.68c0.11-0.9,0.22-1.79,0.31-2.69c0.1-0.82,0.21-1.64,0.29-2.48c0.03-0.27,0.26-0.48,0.53-0.48h0.57
				c0.29,0,0.53,0.25,0.53,0.54c-0.5,159.82-121.32,289.18-270.31,289.18c-147.84,0-267.96-127.4-270.27-285.52l-0.03,4.89
				C229.73,798.77,368.64,940,540,940s310.27-141.23,310.27-315.44L850.14,615.47z"/>
			<path class="st2" d="M477.8,451.07c-103.89,0-188.11,84.22-188.11,188.11c0,103.89,84.22,188.11,188.11,188.11
				c103.89,0,188.11-84.22,188.11-188.11C665.92,535.29,581.7,451.07,477.8,451.07z M572.59,733.98
				c-25.32,25.32-58.98,39.27-94.79,39.27c-35.81,0-69.47-13.95-94.79-39.27c-25.32-25.32-39.27-58.98-39.27-94.79
				c0-35.81,13.95-69.47,39.27-94.79s58.98-39.27,94.79-39.27c35.81,0,69.47,13.95,94.79,39.27c25.32,25.32,39.27,58.98,39.27,94.79
				C611.86,674.99,597.91,708.66,572.59,733.98z"/>
			<path class="st2" d="M477.8,541.89c-53.74,0-97.3,43.56-97.3,97.3c0,53.73,43.56,97.3,97.3,97.3c53.73,0,97.3-43.57,97.3-97.3
				C575.1,585.44,531.53,541.89,477.8,541.89z M477.8,682.43c-23.85,0-43.24-19.39-43.24-43.24c0-23.85,19.39-43.24,43.24-43.24
				c23.84,0,43.24,19.39,43.24,43.24C521.05,663.03,501.64,682.43,477.8,682.43z"/>
		</g>
	</g>
</g>
<g id="Layer_4">
</g>
</svg>
