<?xml version="1.0" encoding="utf-8"?>
<!-- Generator: Adobe Illustrator 27.5.0, SVG Export Plug-In . SVG Version: 6.00 Build 0)  -->
<svg version="1.1" xmlns="http://www.w3.org/2000/svg" xmlns:xlink="http://www.w3.org/1999/xlink" x="0px" y="0px"
	 viewBox="0 0 750 500" style="enable-background:new 0 0 750 500;" xml:space="preserve">
<g id="BACKGROUND" style="display:none;">
	<rect style="display:inline;fill:#FFFFFF;" width="750" height="500"/>
</g>
<g id="OBJECTS">
	<g>
		<g>
			<path style="fill:#FFC9C9;" d="M448.61,431.311c-8.498-13.679-23.652-22.791-40.941-22.791h-67.338
				c-17.289,0-32.442,9.113-40.941,22.791H448.61z"/>
			<rect x="366.23" y="365.009" style="fill:#FFC9C9;" width="15.539" height="56.978"/>
		</g>
		<path style="fill:#FFC9C9;" d="M639.515,371.997H110.484c-10.545,0-19.093-8.548-19.093-19.093V66.934
			c0-10.545,8.548-19.093,19.093-19.093h529.031c10.545,0,19.093,8.548,19.093,19.093v285.971
			C658.609,363.449,650.06,371.997,639.515,371.997z"/>
		<path style="fill:none;stroke:#131834;stroke-width:0.75;stroke-linecap:round;stroke-linejoin:round;stroke-miterlimit:10;" d="
			M636.595,370.667h-523.19c-10.545,0-19.093-8.548-19.093-19.093V69.783c0-10.545,8.548-19.093,19.093-19.093h523.19
			c10.545,0,19.093,8.548,19.093,19.093v281.791C655.688,362.118,647.14,370.667,636.595,370.667z"/>
		<g>
			<path style="fill:#FFFFFF;" d="M637.71,361.115H112.29c-7.061,0-12.785-5.724-12.785-12.785V81.754h550.99V348.33
				C650.495,355.391,644.771,361.115,637.71,361.115z"/>
			<rect x="109.978" y="139.769" style="fill:#FFC9C9;" width="528.676" height="205.28"/>
			<path style="fill:#7AC1B3;" d="M650.693,107.252H99.307V71.458c0-8.395,6.806-15.201,15.201-15.201h520.984
				c8.395,0,15.201,6.806,15.201,15.201V107.252z"/>
			<rect x="116.978" y="115.941" style="fill:#7AC1B3;" width="102.561" height="13.986"/>
			<rect x="233.258" y="115.941" style="fill:#7AC1B3;" width="398.956" height="13.986"/>
			<rect x="116.978" y="258.876" style="fill:#FFFFFF;" width="102.561" height="58.877"/>
			<rect x="544.567" y="147.769" style="fill:#FFFFFF;" width="87.647" height="99.429"/>
			<rect x="233.633" y="147.769" style="fill:#FFFFFF;" width="290.733" height="55.712"/>
			
				<rect x="236.712" y="152.477" style="fill:none;stroke:#222221;stroke-width:0.75;stroke-linecap:round;stroke-linejoin:round;stroke-miterlimit:10;" width="284.064" height="46.619"/>
			<g>
				<rect x="233.633" y="216.948" style="fill:#FFFFFF;" width="163.309" height="99.453"/>
				
					<rect x="236.74" y="220.851" style="fill:none;stroke:#131834;stroke-width:0.75;stroke-linecap:round;stroke-linejoin:round;stroke-miterlimit:10;" width="156.057" height="93.237"/>
			</g>
			<g>
				<rect x="116.978" y="147.769" style="fill:#FFFFFF;" width="102.561" height="99.429"/>
				
					<line style="fill:none;stroke:#A9E6E2;stroke-width:6;stroke-linecap:round;stroke-linejoin:round;stroke-miterlimit:10;" x1="127.59" y1="162.042" x2="205.287" y2="162.042"/>
				
					<line style="fill:none;stroke:#A9E6E2;stroke-width:6;stroke-linecap:round;stroke-linejoin:round;stroke-miterlimit:10;" x1="127.59" y1="174.474" x2="205.287" y2="174.474"/>
				
					<line style="fill:none;stroke:#A9E6E2;stroke-width:6;stroke-linecap:round;stroke-linejoin:round;stroke-miterlimit:10;" x1="127.59" y1="186.905" x2="205.287" y2="186.905"/>
				
					<line style="fill:none;stroke:#A9E6E2;stroke-width:6;stroke-linecap:round;stroke-linejoin:round;stroke-miterlimit:10;" x1="127.59" y1="199.337" x2="205.287" y2="199.337"/>
				
					<line style="fill:none;stroke:#A9E6E2;stroke-width:6;stroke-linecap:round;stroke-linejoin:round;stroke-miterlimit:10;" x1="127.59" y1="211.768" x2="205.287" y2="211.768"/>
			</g>
			<g>
				<rect x="415.589" y="216.948" style="fill:#FFFFFF;" width="109.813" height="99.453"/>
				
					<line style="fill:none;stroke:#A9E6E2;stroke-width:6;stroke-linecap:round;stroke-linejoin:round;stroke-miterlimit:10;" x1="427.198" y1="237.15" x2="512.063" y2="237.15"/>
				
					<line style="fill:none;stroke:#A9E6E2;stroke-width:6;stroke-linecap:round;stroke-linejoin:round;stroke-miterlimit:10;" x1="427.198" y1="249.581" x2="512.063" y2="249.581"/>
				
					<line style="fill:none;stroke:#A9E6E2;stroke-width:6;stroke-linecap:round;stroke-linejoin:round;stroke-miterlimit:10;" x1="427.198" y1="262.013" x2="512.063" y2="262.013"/>
				
					<line style="fill:none;stroke:#A9E6E2;stroke-width:6;stroke-linecap:round;stroke-linejoin:round;stroke-miterlimit:10;" x1="427.198" y1="274.445" x2="512.063" y2="274.445"/>
				
					<line style="fill:none;stroke:#A9E6E2;stroke-width:6;stroke-linecap:round;stroke-linejoin:round;stroke-miterlimit:10;" x1="427.198" y1="286.876" x2="512.063" y2="286.876"/>
			</g>
		</g>
		
			<rect x="549.855" y="151.959" style="fill:none;stroke:#131834;stroke-width:0.75;stroke-linecap:round;stroke-linejoin:round;stroke-miterlimit:10;" width="77.072" height="91.049"/>
		<g>
			<path style="fill:#7AC1B3;" d="M287.825,194.891h-45.288c-0.621,0-1.125-0.503-1.125-1.124v-34.77
				c0-0.621,0.504-1.125,1.125-1.125h45.288c0.621,0,1.125,0.504,1.125,1.125v34.77
				C288.949,194.387,288.446,194.891,287.825,194.891z"/>
			<path style="fill:#7AC1B3;" d="M364.333,194.891h-65.077c-0.621,0-1.124-0.503-1.124-1.124v-34.77
				c0-0.621,0.503-1.125,1.124-1.125h65.077c0.621,0,1.124,0.504,1.124,1.125v34.77
				C365.457,194.387,364.954,194.891,364.333,194.891z"/>
		</g>
		<g>
			<circle style="fill:#C85A43;" cx="561.833" cy="83.585" r="8.115"/>
			<circle style="fill:#FFFFFF;" cx="590.236" cy="83.585" r="8.115"/>
			<circle style="fill:#161111;" cx="618.639" cy="83.585" r="8.115"/>
		</g>
		<g>
			<path style="fill:#FFFFFF;" d="M113.778,76.297v21.606h6.791c-0.413-1.043-0.651-2.214-0.651-3.457
				c0-4.296,2.773-7.778,6.194-7.778s6.194,3.483,6.194,7.778c0,1.243-0.238,2.414-0.652,3.457h7.187V76.297H113.778z"/>
			<polygon style="fill:#C85A43;" points="143.755,77.529 126.161,64.407 108.864,77.529 			"/>
			
				<line style="fill:none;stroke:#131834;stroke-width:0.75;stroke-linecap:round;stroke-linejoin:round;stroke-miterlimit:10;" x1="113.21" y1="77.738" x2="139.137" y2="77.738"/>
		</g>
	</g>
	<path style="fill:#FFDEDE;" d="M353.453,442.313c9.895-0.178,20.663-0.268,28.664,1.842c1.916,0.505,3.744,1.272,3.339,2.115
		c-0.309,0.643-1.831,1.113-3.35,1.468c-12.762,2.982-29.402,1.586-44.603,1.501c-8.607-0.048-76.136,3.038-65.289-3.782
		c5.257-3.305,28.21-2.189,36.738-2.343C323.786,442.847,338.62,442.58,353.453,442.313z"/>
	<path style="fill:#FFDEDE;" d="M563.285,447.87c6.336,0.117,12.672,0.263,19.007,0.437c4.961,0.136,9.937,0.292,14.837,1.075
		c2.607,0.417,9.833,2.895,5.844,5.701c-2.079,1.463-6.271,1.341-8.68,1.523c-6.08,0.458-12.16,0.221-18.248,0.248
		c-12.572,0.054-25.133-0.367-37.704-0.414c-20.888-0.078-41.776,0.756-62.668,0.677c-7.623-0.029-15.251-0.111-22.869-0.425
		c-2.834-0.117-18.419,0.412-16.505-5.378c1.23-3.721,14.551-2.519,17.836-2.628C490.504,447.469,526.903,447.198,563.285,447.87z"
		/>
	<path style="fill:#FFDEDE;" d="M108.501,428.577c3.177-0.159,6.634-0.239,9.202,1.643c0.615,0.451,1.202,1.135,1.072,1.888
		c-0.099,0.574-0.588,0.993-1.075,1.31c-4.097,2.66-9.439,1.415-14.319,1.339c-2.763-0.043-24.443,2.711-20.96-3.375
		c1.688-2.949,9.057-1.953,11.794-2.09C98.977,429.053,103.739,428.815,108.501,428.577z"/>
	<path style="fill:#FFDEDE;" d="M226.077,441.76c6.336,0.117,12.672,0.263,19.007,0.437c4.96,0.136,9.937,0.292,14.837,1.075
		c2.607,0.417,9.832,2.895,5.844,5.701c-2.079,1.463-6.271,1.342-8.68,1.523c-6.08,0.458-12.16,0.221-18.248,0.248
		c-12.572,0.054-25.133-0.367-37.704-0.414c-20.888-0.078-41.776,0.756-62.668,0.677c-7.623-0.029-15.251-0.111-22.869-0.425
		c-2.834-0.117-18.419,0.412-16.505-5.378c1.23-3.72,14.551-2.519,17.837-2.628C153.296,441.359,189.695,441.088,226.077,441.76z"/>
	<g>
		<path style="fill:#B8DED8;" d="M41.615,291.907c-1.151-5.377-2.13-10.789-3.073-16.125c-0.346-1.961-0.674-4.076,0.199-5.866
			c1.301-2.669,4.899-3.525,7.734-2.645s5.06,3.048,7.111,5.194c12.287,12.861,22.131,27.792,29.619,43.903
			c3.748,8.062,6.537,16.445,10.579,24.336c4.434,8.657,8.143,17.685,11.088,26.955c4.464,14.051,6.821,28.494,8.156,43.127
			c-3.496-8.414-7.021-16.816-10.574-25.207c-4.048-9.559-9.118-18.361-16.505-25.725c-7.221-7.199-15.877-12.8-22.864-20.251
			C50.967,326.68,45.377,309.483,41.615,291.907z"/>
		<path style="fill:none;stroke:#131834;stroke-width:0.75;stroke-linecap:round;stroke-linejoin:round;stroke-miterlimit:10;" d="
			M62.513,310.315c8.559,13.206,16.501,24.587,27.005,36.306c8.972,10.01,12.868,24.571,16.416,37.207
			c4.531,16.136,8.481,31.964,8.794,48.862"/>
		<g>
			<path style="fill:#7AC1B3;" d="M104.26,369.596c1.869-15.087,3.708-30.381,9.319-44.51c3.067-7.722,7.355-15.047,12.976-21.192
				c3.011-3.292,12.283-14.601,17.59-8.08c2.25,2.765,0.804,10.956,0.289,14.155c-0.844,5.241-2.574,10.329-4.816,15.131
				c-4.838,10.364-11.834,19.559-17.415,29.549c-12.682,22.704-13.692,47.895-22.766,71.285
				C92.487,420.157,102.98,379.922,104.26,369.596z"/>
			<path style="fill:#B8DED8;" d="M80.175,385.387c-4.196-6.693-11.448-10.706-17.544-15.729
				c-5.856-4.825-10.792-10.763-14.466-17.405c-1.282-2.318-4.842-7.903-8.122-6.625c-4.451,1.733-1.555,13.555-0.452,16.483
				c5.497,14.602,18.669,24.193,30.354,33.657c3.091,2.503,6.158,5.039,9.091,7.727c1.416,1.297,2.801,2.629,4.137,4.008
				c1.234,1.274,3.097,2.682,3.868,4.248c0.782,1.59,1.564,3.179,2.346,4.769c0.548,1.114,1.204,2.328,2.376,2.739
				c0.103,0.036,0.222,0.064,0.316,0.01c0.078-0.044,0.118-0.133,0.149-0.217c0.38-1.049-0.566-2.57-0.894-3.593
				c-0.459-1.429-0.894-2.866-1.32-4.306c-0.883-2.982-1.723-5.976-2.643-8.947C85.563,396.372,83.433,390.583,80.175,385.387z"/>
			<path style="fill:none;stroke:#131834;stroke-width:0.75;stroke-linecap:round;stroke-linejoin:round;stroke-miterlimit:10;" d="
				M98.249,433.377c2.77-36.54,11.737-72.602,26.404-106.184"/>
			<path style="fill:none;stroke:#131834;stroke-width:0.75;stroke-linecap:round;stroke-linejoin:round;stroke-miterlimit:10;" d="
				M95.187,432.91c-1.247-11.704-5.917-23.022-13.286-32.2c-8.748-10.895-20.954-18.569-29.914-29.29"/>
		</g>
	</g>
	<g>
		<path style="fill:#FFDEDE;" d="M623.032,420.462c3.177-0.159,6.634-0.239,9.202,1.643c0.615,0.451,1.202,1.135,1.072,1.887
			c-0.099,0.574-0.588,0.993-1.075,1.31c-4.097,2.66-9.439,1.415-14.319,1.339c-2.763-0.043-24.443,2.711-20.96-3.375
			c1.688-2.949,9.057-1.953,11.794-2.09C613.508,420.938,618.27,420.7,623.032,420.462z"/>
		<path style="fill:#B8DED8;" d="M684.094,238.824c-3.398,18.095-16.341,30.136-24.289,45.819
			c-8.556,16.883-17.566,34.179-21.214,52.921c-3.613,18.563-9.129,36.754-16.432,54.198c-1.364,0.401-2.293-1.36-2.567-2.755
			c-2.439-12.412,0.147-25.213,3.069-37.52c5.142-21.662,11.346-43.071,18.58-64.127c6.023-17.532,15.142-36.386,27.274-50.69
			c2.21-2.605,4.767-5.156,7.971-6.242c0.268-0.091,0.541-0.171,0.819-0.241C683.893,228.539,685.038,233.799,684.094,238.824z"/>
		<path style="fill:none;stroke:#131834;stroke-width:0.75;stroke-linecap:round;stroke-linejoin:round;stroke-miterlimit:10;" d="
			M669.185,249.045c-31.87,43.28-41.037,94.515-48.16,146.602c-1.262,9.231-2.398,18.48-3.407,27.742"/>
		<path style="fill:#7AC1B3;" d="M671.243,283.492c4.058-6.468,9.591-10.855,18.57-9.387c1.059,11.023-2.223,19.928-8.527,28.96
			c-2.901,4.156-4.374,8.326-6.8,12.629c-6.572,11.654-13.774,22.936-21.012,34.183c-3.7,5.75-7.416,11.49-11.067,17.272
			c-1.744,2.761-3.597,5.496-5.198,8.343c-0.312,0.555-4.167,5.461-4.155,5.296c1.324-17.574,5.018-34.574,12.984-50.414
			c3.836-7.627,9.498-13.839,13.552-21.108C663.621,302.038,666.367,291.264,671.243,283.492z"/>
		<path style="fill:#7AC1B3;" d="M670.521,343.979c8.536-9.236,17.464-18.75,29.111-23.494c2.212-0.901,4.958-1.545,6.814-0.042
			c1.567,1.27,1.81,3.586,1.48,5.576c-0.616,3.722-2.741,7.012-5.031,10.01c-14.96,19.589-37.633,30.728-57.373,44.642
			c-5.361,3.779-10.253,8.773-15.666,12.251c0.327-3.961,5.268-8.372,7.656-11.381c3.453-4.351,7.016-8.614,10.647-12.817
			C655.426,360.311,662.975,352.144,670.521,343.979z"/>
		<path style="fill:none;stroke:#131834;stroke-width:0.75;stroke-linecap:round;stroke-linejoin:round;stroke-miterlimit:10;" d="
			M678.156,292.055c-30.233,38.672-47.871,84.366-55.095,132.711"/>
		<path style="fill:none;stroke:#131834;stroke-width:0.75;stroke-linecap:round;stroke-linejoin:round;stroke-miterlimit:10;" d="
			M629.861,392.289c15.248-15.19,30.645-28.849,47.525-42.202"/>
	</g>
	<g>
		<path style="fill:#FFDEDE;" d="M633.367,435.825c-0.893,0.217-1.671,0.55-2.185,1.067c-2.056,2.072,0.001,3.575,2.334,4.003
			c5.845,1.071,11.812,1.473,17.751,1.197c2.397-0.111,5.221,0.227,7.485-0.733c3.089-1.31,3.277-5.138,0.058-6.566
			c-1.456-0.646-3.119-0.553-4.709-0.447c-4.937,0.328-9.874,0.656-14.812,0.984C637.828,435.428,635.323,435.349,633.367,435.825z"
			/>
		<g>
			<g>
				<path style="fill:#B8DED8;" d="M631.295,385.208c-4.729-13.896-9.512-27.909-17.037-40.512
					c-3.286-5.503-9.01-11.398-15.065-9.295c-6.145,2.135-6.884,10.598-5.313,16.911c3.695,14.844,13.539,26.91,23.326,38.246
					c5.143,5.957,10.441,11.796,15.208,18.066c3.978,5.233,6.804,11.806,10.797,16.72
					C644.288,412.804,635.252,396.835,631.295,385.208z"/>
				
					<path style="fill:none;stroke:#131834;stroke-width:0.75;stroke-linecap:round;stroke-linejoin:round;stroke-miterlimit:10;" d="
					M613.695,369.032c14.765,21.018,30.043,43.414,31.983,69.026"/>
			</g>
			<g>
				<path style="fill:#C85A43;" d="M684.596,366.062c6.328-4.487,13.949-8.178,21.595-6.869c2.12,0.363,4.336,1.237,5.43,3.089
					c1.173,1.986,0.737,4.503,0.116,6.724c-3.305,11.824-11.002,22.366-21.257,29.115c-10.305,6.783-23.19,9.991-31.413,19.189
					c-2.235,2.5-4.007,5.402-6.468,7.652c-6.437-3.714,5.578-27.599,8.351-32.505C666.807,382.093,674.875,372.955,684.596,366.062z
					"/>
				
					<path style="fill:none;stroke:#131834;stroke-width:0.75;stroke-linecap:round;stroke-linejoin:round;stroke-miterlimit:10;" d="
					M649.749,439.374c-0.283-10.438,2.754-20.94,8.564-29.616c7.319-10.929,18.572-18.605,26.857-28.821"/>
			</g>
		</g>
	</g>
	<g>
		<g>
			<path style="fill:#D98C73;" d="M529.155,440.891c-0.165,0.461-0.39,0.89-0.742,1.227c-0.99,0.951-2.593,0.819-3.893,0.379
				c-1.463-0.495-2.621-0.894-4.128-0.996c-1.339-0.091-2.759,0.184-3.407-1.331c-0.416-0.973-0.321-2.139-0.22-3.263
				c0.33-3.665,0.661-7.343,1.49-11.019c0.812-3.603,1.659-6.687,4.827-8.948c1.876-1.339,4.482-2.088,6.466-0.915
				c1.595,0.943,2.34,2.857,2.645,4.685c0.667,3.999-0.235,8.074-1.133,12.028c-0.529,2.331-1.059,4.663-1.589,6.994
				C529.383,440.118,529.289,440.515,529.155,440.891z"/>
			<path style="fill:#161111;" d="M529.239,439.609c-0.115-0.004-0.233,0.006-0.344,0.019c-3.977,0.447-8.922,0.872-12.661-0.752
				c-2.107,2.936-5.43,4.784-8.846,5.964c-2.534,0.875-5.159,1.424-7.756,2.07c-2.272,0.565-5.067,0.74-7.133,1.86
				c-1.197,0.649-2.209,1.8-2.319,3.157c-0.028,0.34,0.006,0.697,0.182,0.989c0.334,0.552,1.051,0.705,1.689,0.801
				c11.257,1.687,22.799,1.144,34.131,0.661c0.831-0.036,1.794-0.143,2.24-0.846c0.248-0.391,0.27-0.88,0.284-1.343
				c0.093-3.086,0.648-5.744,1.024-8.75c0.082-0.664,0.473-3.058,0.019-3.623C529.628,439.664,529.439,439.616,529.239,439.609z"/>
		</g>
		<g>
			<path style="fill:#D98C73;" d="M586.932,437.354c-0.2,0.937-0.506,1.879-1.223,2.492c-0.801,0.685-1.933,0.802-2.987,0.808
				c-4.6,0.026-7.964-0.688-8.365-5.662c-0.403-4.994-1.398-9.876-1.774-14.871c-0.181-2.413,0.136-5.661,1.533-7.694
				c1.039-1.512,2.395-2.856,4.078-3.586s3.719-0.774,5.297,0.162c2.151,1.277,2.972,3.949,3.453,6.405
				c1.386,7.078,1.412,14.42,0.077,21.508C586.992,437.062,586.963,437.208,586.932,437.354z"/>
			<path style="fill:#161111;" d="M587.59,435.694c-0.11-0.475-4.841,0.405-5.243,0.466c-2.561,0.386-5.217,1.386-7.728,0.73
				c-0.766,2.733-3.354,4.5-5.829,5.889c-3.353,1.882-6.846,3.514-10.441,4.879c-2.394,0.909-5.221,2.138-5.624,4.666
				c1.008,1.329,2.931,1.439,4.599,1.423c9.795-0.089,19.587-0.408,29.372-0.879c1.082-0.052,2.359-0.224,2.86-1.185
				c0.305-0.586,0.211-1.291,0.109-1.943C588.938,445.088,588.626,440.276,587.59,435.694z"/>
		</g>
		<g>
			<path style="fill:#4B98B8;" d="M578.067,425.809c3.82-0.039,7.619-0.554,11.437-0.675c3.909-0.124,7.823-0.081,11.727-0.355
				c0.839-0.059,1.687-0.133,2.534-0.227c0.248-0.416,0.403-0.904,0.424-1.382c0.089-1.996-0.992-4.012-1.191-6.012
				c-0.176-1.77-0.143-3.52-0.384-5.29c-0.529-3.886-0.528-7.891-1.448-11.716c-1.308-5.434-4.441-10.333-5.431-15.834
				c-0.948-5.266,0.139-10.657,0.353-16.004c0.344-8.585-1.613-16.967-3.977-25.156c-1.9-6.582-1.915-12.442-2.143-19.299
				c-0.665-19.989,2.005-42.805-10-59.684c-3.032-4.262-7.999-7.534-13.049-7.139c-3.693,0.289-6.54,2.3-8.665,5.182
				c-6.202,8.417-2.742,31.288-1.639,41.273c1.463,13.238,3.967,26.181,5.301,39.476c2.73,27.221,5.659,54.432,8.768,81.63
				C573.017,425.461,575.457,425.836,578.067,425.809z"/>
			<path style="fill:#4B98B8;" d="M558.617,264.443c-13.678-1.484-19.189,12.426-21.835,23.272
				c-5.588,22.906-10.163,46.059-13.713,69.368c-1.766,11.594-3.754,23.156-5.215,34.794c-1.511,11.911-2.312,24.463-2.891,36.4
				c5.287,1.731,10.964,2.074,16.521,2.127c5.025,0.047,10.055-0.116,15.066,0.145c0.945-0.739,1.208-2.09,1.374-3.305
				c0.718-5.263,1.438-10.574,1.043-15.871c-0.414-5.544-2.044-11-1.827-16.555c0.212-5.425,2.172-10.606,3.385-15.898
				c2.491-10.869,1.925-22.096,3.163-33.117c1.229-10.94,6.251-18.205,9.965-27.967
				C569.018,303.728,584.888,267.294,558.617,264.443z"/>
			<path style="fill:none;stroke:#131834;stroke-width:0.75;stroke-linecap:round;stroke-linejoin:round;stroke-miterlimit:10;" d="
				M558.151,330.884c6.707-12.618,12.67-25.632,17.847-38.951"/>
			<path style="fill:none;stroke:#131834;stroke-width:0.75;stroke-linecap:round;stroke-linejoin:round;stroke-miterlimit:10;" d="
				M527.362,348.438c-0.295,3.573-0.59,7.145-0.885,10.718"/>
			<path style="fill:none;stroke:#131834;stroke-width:0.75;stroke-linecap:round;stroke-linejoin:round;stroke-miterlimit:10;" d="
				M546.664,380.296c-1.708,4.507-2.33,9.422-1.799,14.212c0.404,3.648,1.46,7.361,0.577,10.924"/>
			<path style="fill:none;stroke:#131834;stroke-width:0.75;stroke-linecap:round;stroke-linejoin:round;stroke-miterlimit:10;" d="
				M545.085,411.296c0,1.381,0,2.763,0,4.144"/>
			<path style="fill:none;stroke:#131834;stroke-width:0.75;stroke-linecap:round;stroke-linejoin:round;stroke-miterlimit:10;" d="
				M589.248,366.051c-0.037,1.796,1.468,3.205,2.171,4.858c1.223,2.874-0.069,6.14-0.109,9.263
				c-0.029,2.295,0.652,4.594,1.928,6.502"/>
			<path style="fill:none;stroke:#131834;stroke-width:0.75;stroke-linecap:round;stroke-linejoin:round;stroke-miterlimit:10;" d="
				M594.812,393.34c0.67,2.018,1.133,4.104,1.381,6.216"/>
		</g>
		<g>
			<path style="fill:#D98C73;" d="M530.991,206.281c0.225-1.199,1.126-2.248,2.279-2.649c1.19-0.415,2.846-0.39,3.242-1.585
				c0.198-0.599-0.08-1.283-0.561-1.691c-0.481-0.408-1.125-0.575-1.754-0.614c-1.934-0.119-3.89,0.968-4.81,2.673
				c-0.283,0.524-0.692,1.209-1.263,1.043c-0.271-0.079-0.446-0.339-0.557-0.598c-0.673-1.576,0.258-3.339,1.159-4.797
				c0.709-1.147,1.465-2.341,2.638-3.006c1.315-0.746,2.921-0.698,4.429-0.594c3.047,0.21,6.239,0.442,8.813,2.254
				c0.675,0.475,1.291,1.028,1.964,1.505c1.727,1.225,3.769,1.912,5.777,2.583c-0.627,2.176-1.254,4.353-1.881,6.529
				c-0.032,0.113-0.073,0.236-0.173,0.296c-0.106,0.064-0.24,0.037-0.361,0.007c-3.698-0.903-7.132-1.226-10.84-1.808
				C536.436,205.489,533.619,205.827,530.991,206.281z"/>
			<path style="fill:#E3AE3D;" d="M568.023,201.046c2.133,0.958,4.201,2.017,6.134,3.222c5.807,3.618,9.607,10.262,9.781,17.102
				c0.026,1.001-0.028,2.035-0.45,2.944c-0.677,1.459-2.198,2.358-3.742,2.804c-2.955,0.854-6.165,0.347-9.028-0.777
				c-2.863-1.123-5.452-2.831-8.06-4.461c-5.287-3.305-12.55-5.684-16.668-10.399c-2.011-2.303-3.319-5.424-2.73-8.424
				c0.407-2.07,1.651-3.863,2.866-5.587c2.617-3.717,6.94-1.993,10.698-0.692C560.506,198.052,564.359,199.4,568.023,201.046z"/>
			<path style="fill:#7AC1B3;" d="M536.977,211.725h-87.88c-0.621,0-1.124-0.503-1.124-1.124v-35.823
				c0-0.621,0.503-1.125,1.124-1.125h87.88c0.621,0,1.125,0.503,1.125,1.125v35.823
				C538.102,211.222,537.598,211.725,536.977,211.725z"/>
			<path style="fill:#D98C73;" d="M475.588,221.468c2.882,2.025,4.822,4.066,8.331,5.018c1.417,0.384,2.949,0.517,4.339,0.046
				c2.868-0.973,3.533-4.089,1.852-6.468c-1.38-1.953-3.654-3.023-5.747-4.18c-1.653-0.914-4.285-2.014-5.205-3.746
				c-0.806-1.519-1.142-3.196-2.319-4.519c-0.987-1.109-1.892-2.102-2.358-3.551c-0.174-0.542-0.343-1.113-0.741-1.52
				c-0.398-0.407-1.11-0.572-1.533-0.19c-2.394,2.163,3.58,6.063-0.394,8.466c-0.814,0.492-1.79,0.634-2.739,0.694
				c-2.774,0.176-5.551,0.209-8.34,0.247c0.115,1.083,0.678,2.545,1.388,3.371c1.315,1.533,3.188,3.258,5.177,3.938
				c0.262,0.09,0.527,0.161,0.792,0.212C470.861,219.815,473.129,219.74,475.588,221.468z"/>
			<path style="fill:#D98C73;" d="M580.747,176.15c0.242-3.025-0.763-6.06-2.633-8.452c-1.533-1.962-2.97-4.755-5.529-5.543
				c-2.861-0.881-5.522-0.733-8.442-0.78c-2.312-0.037-4.476,0.953-5.592,3.114c-0.419,0.812-0.644,1.709-0.83,2.603
				c-0.637,3.066-0.842,6.221-0.62,9.344c0.185,2.605,0.414,5.907,2,8.096c0.699,0.964,2.012,1.579,3.115,1.13
				c1.344,4.657,0.611,9.325-0.147,14.006c-0.403,2.487-0.376,5.323,1.342,7.166c1.216,1.305,3.081,1.844,4.865,1.83
				c2.597-0.021,5.017-1.113,7.545-1.501c2.389-0.367,2.229-1.895,2.263-3.843c0.043-2.403-0.048-4.802-0.121-7.203
				c-0.142-4.637-0.213-9.369,1.133-13.859c0.499-1.665,1.189-3.279,1.504-4.988C580.669,176.897,580.718,176.523,580.747,176.15z"
				/>
			<path style="fill:#E3AE3D;" d="M592.285,208.467c-3.1-7.285-9.286-12.755-18.5-14.393c-9.191-1.634-14.756,2.078-18.251,10.834
				c-3.994,10.007-5.831,20.913-9.419,31.211c-4.435,12.727-8.718,28.155-7.828,41.733c7.568,1.711,15.108,2.589,22.989,2.642
				c2.448,0.017,29.165-1.368,29.115-1.594c-2.327-10.526-2.529-21.518-0.59-32.123c1.364-7.461,3.772-14.732,4.593-22.272
				C595.018,218.759,594.31,213.225,592.285,208.467z"/>
			<path style="fill:#E3AE3D;" d="M576.134,213.306c1.188-8.03-1.612-17.919-11.424-15.816c-6.24,1.337-9.809,8.489-14.504,12.218
				c-5.621,4.464-12.531,7.33-19.687,8.002c-9.52,0.894-18.8-1.902-27.91-4.251c-8.004-2.063-23.533-7.002-25.674,5.707
				c-0.784,4.652,1.754,9.381,5.383,12.395c3.629,3.014,8.207,4.609,12.73,5.95c17.184,5.096,37.401,7.7,54.671,1.615
				c9.458-3.332,19.464-10.792,24.438-19.622C575.104,217.824,575.788,215.643,576.134,213.306z"/>
			<path style="fill:#161111;" d="M573.931,160.673c-1.973-0.107-3.961-0.045-5.915-0.332c-2.184-0.321-4.341-1.076-6.54-0.887
				c-1.635,0.141-3.477,1.048-4.201,2.596c-0.543,1.161-0.819,3.844,0.387,4.662c0.381,0.258,0.85,0.343,1.304,0.421
				c0.827,0.143,1.654,0.287,2.481,0.43c1.264,0.219,2.255,0.422,2.894,1.522c0.615,1.059,0.65,2.363,1.469,3.349
				c0.962,1.157,2.592,1.514,3.735,2.492c1.614,1.381,1.815,3.328,2.182,5.242c0.522,2.718,1.351,5.307,1.649,8.082
				c0.247,2.296,0.304,4.654,1.126,6.811c1.294,3.4,4.371,5.882,7.74,7.255c4.644,1.893,11.357,4.109,13.702-1.564
				c2.776-6.718,1.26-14.997-3.717-20.295c-1.221-1.299-2.669-2.494-3.285-4.167c-0.425-1.153-0.405-2.415-0.594-3.629
				c-0.896-5.76-7.145-11.167-12.803-11.853C575.009,160.745,574.471,160.703,573.931,160.673z"/>
			<path style="fill:#D98C73;" d="M567.238,171.533c0.411-0.481,0.981-0.811,1.762-0.884c1.738-0.161,3.514,1.057,3.952,2.746
				c0.438,1.689-0.552,3.639-2.188,4.246c-1.881,0.697-3.744-0.62-4.441-2.458c-0.068-0.179-0.063-0.376-0.054-0.568
				C566.321,173.499,566.569,172.316,567.238,171.533z"/>
			<g>
				<defs>
					<path id="SVGID_1_" d="M580.747,176.15c0.242-3.025-0.763-6.06-2.633-8.452c-1.533-1.962-2.97-4.755-5.529-5.543
						c-2.504-0.771-5.289-1.092-7.893-0.762c-2.764,0.35-3.842,0.875-4.982,3.501c-2.179,5.019-2.214,10.91-1.648,16.263
						c0.125,1.184,0.34,2.41,1.039,3.374c0.699,0.964,2.012,1.579,3.115,1.13c1.344,4.657,0.611,9.325-0.147,14.006
						c-0.403,2.487-0.376,5.323,1.342,7.166c1.216,1.305,3.081,1.844,4.865,1.83c2.597-0.021,5.017-1.113,7.545-1.501
						c2.389-0.367,2.229-1.895,2.263-3.843c0.043-2.403-0.048-4.802-0.121-7.203c-0.142-4.637-0.213-9.369,1.133-13.859
						c0.499-1.665,1.189-3.279,1.504-4.988C580.669,176.897,580.718,176.523,580.747,176.15z"/>
				</defs>
				<clipPath id="SVGID_00000085953891383719589830000015420074032992104866_">
					<use xlink:href="#SVGID_1_"  style="overflow:visible;"/>
				</clipPath>
				<path style="clip-path:url(#SVGID_00000085953891383719589830000015420074032992104866_);fill:#161111;" d="M567.48,184.001
					c0.152,0.169,0.167,0.431,0.117,0.656c-0.092,0.425-0.377,0.804-0.759,1.012c-0.359,0.195-0.8,0.249-1.096,0.529
					c-0.166,0.157-0.267,0.369-0.394,0.56c-0.43,0.643-1.12,0.984-1.805,1.289c-0.497,0.222-1.383,0.985-1.903,0.431
					c-0.201-0.214-0.276-0.518-0.303-0.81c-0.042-0.453,0.016-0.926,0.24-1.322c0.337-0.593,0.948-0.725,1.54-0.93
					c0.741-0.257,1.461-0.572,2.153-0.942c0.502-0.268,1.005-0.571,1.57-0.64c0.214-0.026,0.451-0.009,0.61,0.136
					C567.46,183.98,567.47,183.99,567.48,184.001z"/>
			</g>
			<path style="fill:none;stroke:#161111;stroke-width:0.75;stroke-linecap:round;stroke-linejoin:round;stroke-miterlimit:10;" d="
				M570.908,173.033c-1.354-0.578-3.122,0.245-3.551,1.653"/>
			<path style="fill:#D98C73;" d="M534.528,192.987c-0.506-0.303-1.05-0.634-1.577-0.569c-0.751,0.093-1.151,1.041-0.922,1.763
				c0.229,0.722,0.88,1.224,1.541,1.594c1.212,0.679,2.575,1.076,3.729,1.849c0.708,0.474,1.322,1.078,2.026,1.558
				c0.705,0.48,1.549,0.837,2.393,0.721c0.844-0.117,1.641-0.838,1.604-1.69c-0.023-0.537-0.354-1.011-0.725-1.399
				c-1.338-1.397-3.21-2.123-5.016-2.695c-0.812-0.257-1.64-0.451-2.424-0.789C534.958,193.244,534.746,193.118,534.528,192.987z"/>
			<path style="fill:none;stroke:#131834;stroke-width:0.75;stroke-linecap:round;stroke-linejoin:round;stroke-miterlimit:10;" d="
				M543.551,241.027c10.313-3.127,19.51-9.812,25.667-18.657"/>
			<path style="fill:none;stroke:#131834;stroke-width:0.75;stroke-linecap:round;stroke-linejoin:round;stroke-miterlimit:10;" d="
				M546.137,212.512c5.485-3.735,10.271-8.492,14.041-13.953"/>
			<path style="fill:none;stroke:#131834;stroke-width:0.75;stroke-linecap:round;stroke-linejoin:round;stroke-miterlimit:10;" d="
				M515.709,238.098c3.557,0.555,7.14,0.942,10.733,1.161"/>
			<path style="fill:none;stroke:#131834;stroke-width:0.75;stroke-linecap:round;stroke-linejoin:round;stroke-miterlimit:10;" d="
				M529.891,238.635c1.388,0.12,2.795,0.003,4.144-0.345"/>
			<path style="fill:none;stroke:#131834;stroke-width:0.75;stroke-linecap:round;stroke-linejoin:round;stroke-miterlimit:10;" d="
				M584.797,254.174c0,3.453,0,6.907,0,10.36"/>
			<path style="fill:none;stroke:#131834;stroke-width:0.75;stroke-linecap:round;stroke-linejoin:round;stroke-miterlimit:10;" d="
				M590.718,211.682c0.953,2.76,1.156,5.775,0.584,8.639"/>
		</g>
	</g>
	<g>
		<g>
			<path style="fill:#C85A43;" d="M465.308,382.045c3.855-13.966,10.189-28.811,21.828-33.542c4.065-1.652,9.054-1.652,12.119,1.946
				c2.599,3.052,3.119,7.862,2.732,12.194c-1.337,14.96-11.113,26.513-19.901,37.274c-5.783,7.081-11.397,14.452-16.067,22.648
				c-3.432,6.023-5.326,14.608-9.106,19.891C455.455,422.903,460.217,400.491,465.308,382.045z"/>
			<path style="fill:#E3AE3D;" d="M443.061,384.595c-0.827-3.216-1.763-6.522-3.872-9.087c-2.108-2.565-5.709-4.2-8.822-3.044
				c-1.77,0.657-3.134,2.099-4.235,3.633c-3.622,5.049-4.998,11.65-3.694,17.725c1.768,8.237,7.912,14.687,13.096,21.327
				c7.265,9.306,10.732,20.32,16.985,29.883c0.747-6.683-1.493-14.594-2.269-21.318C448.73,410.526,446.369,397.454,443.061,384.595
				z"/>
			<path style="fill:#C85A43;" d="M483.845,411.406c3.351-2.934,6.934-5.208,10.55-6.454c1.638-0.564,3.556-0.868,5.018,0.06
				c1.36,0.862,1.939,2.555,2.148,4.151c0.967,7.372-7.154,16.458-12.976,20.251c-2.862,1.865-6.163,2.931-9.189,4.52
				c-5.138,2.698-9.106,7.471-13.898,10.223C466.585,433.589,474.263,419.798,483.845,411.406z"/>
		</g>
		<path style="fill:none;stroke:#131834;stroke-width:0.75;stroke-linecap:round;stroke-linejoin:round;stroke-miterlimit:10;" d="
			M486.807,417.653c-11.015,9.375-19.455,21.745-24.168,35.42"/>
		<path style="fill:none;stroke:#131834;stroke-width:0.75;stroke-linecap:round;stroke-linejoin:round;stroke-miterlimit:10;" d="
			M457.217,450.501c1.544-17.353,5.215-34.515,10.905-50.981c2.583-7.474,5.582-14.815,7.686-22.438"/>
		<path style="fill:none;stroke:#131834;stroke-width:0.75;stroke-linecap:round;stroke-linejoin:round;stroke-miterlimit:10;" d="
			M453.149,451.664c-0.2-4.506-0.611-9.006-1.373-13.451c-2.652-15.467-9.462-29.864-16.2-44.038"/>
	</g>
	<g>
		<g>
			<g>
				<path style="fill:#C85A43;" d="M368.833,416.094c-0.305,0.197-0.615,0.34-0.93,0.423c0.076-16.395,4.666-34.057,8.292-50.013
					c1.295-5.699,2.736-11.463,5.68-16.513c2.748-4.714,8.131-10.435,13.748-11.363c13.324-2.202,8.357,14.673,5.751,21.622
					c-5.38,14.343-16.084,24.2-23.261,37.659C376.05,401.776,372.847,413.512,368.833,416.094z"/>
				<path style="fill:#E3AE3D;" d="M367.697,308.318c0.272,0.329,0.528,0.672,0.764,1.024c6.77,10.105,7.074,23.607,6.102,35.303
					c-0.515,6.19-1.538,12.343-2.928,18.395c-1.196,5.206-4.49,10.795-4.654,16.033c-3.259-12.641-5.555-25.37-10.25-37.625
					c-2.223-5.738-4.882-11.34-6.359-17.314c-1.008-4.077-1.434-8.46-0.032-12.419c1.402-3.959,4.993-7.355,9.191-7.49
					C362.687,304.124,365.669,305.865,367.697,308.318z"/>
				<path style="fill:#C85A43;" d="M322.389,361.088c-3.279,5.94,3.259,18.479,9.097,23.345c4.94,4.116,11,5.61,15.61,9.904
					c5.412,5.042,10.363,11.257,13.906,17.746c-1.956-3.583-1.217-11.254-2.006-15.409c-1.1-5.791-2.732-11.383-5.211-16.738
					c-3.694-7.98-10.197-19.404-19.547-21.451C327.507,357.011,323.903,358.346,322.389,361.088z"/>
				
					<path style="fill:none;stroke:#222221;stroke-width:0.75;stroke-linecap:round;stroke-linejoin:round;stroke-miterlimit:10;" d="
					M389.808,357.232c-5.303,14.098-11.592,27.82-16.545,42.045c-4.953,14.225-8.576,29.118-8.282,44.178
					c-0.616-11.979-1.683-24.374-5-35.901c-3.318-11.527-8.862-22.596-17.281-31.139"/>
				
					<path style="fill:none;stroke:#222221;stroke-width:0.75;stroke-linecap:round;stroke-linejoin:round;stroke-miterlimit:10;" d="
					M364.862,331.112c2.122,11.462,1.964,23.207,1.799,34.863c-0.165,11.65-0.33,23.299-0.495,34.948
					c-0.182,12.891,0.392,24.061,0.432,36.954"/>
			</g>
			<path style="fill:#111314;" d="M354.509,444.996l-3.928-22.603h31.248l-3.845,22.594c-0.189,1.112-1.069,1.918-2.094,1.918
				h-19.287C355.579,446.905,354.701,446.103,354.509,444.996z"/>
		</g>
	</g>
	<g>
		<g>
			<path style="fill:#C85A43;" d="M316.026,272.537c-0.195-1.546-0.874-3.034-2.066-4.019c-4.299-3.551-8.4,1.501-9.928,5.125
				c-4.27,10.13-9.07,20.343-9.65,31.548c1.571-1.909,3.141-3.818,4.712-5.726c0.792-0.963,1.587-1.929,2.25-2.985
				c0.983-1.566,1.523-3.562,2.694-4.975c0.941-1.137,1.84-2.298,2.756-3.499c0.703-0.922,1.605-1.67,2.456-2.458
				c1.947-1.806,3.662-3.873,4.986-6.175c0.982-1.709,1.756-3.589,1.842-5.558C316.097,273.389,316.08,272.961,316.026,272.537z"/>
			<path style="fill:none;stroke:#111314;stroke-width:0.75;stroke-linecap:round;stroke-linejoin:round;stroke-miterlimit:10;" d="
				M308.391,276.781c-1.31,1.445-1.723,3.46-2.445,5.272c-1.096,2.751-2.936,5.293-4.929,7.446
				c-2.009,2.169-2.967,4.873-3.905,7.664c-0.848,2.526-1.981,5.08-2.604,7.67c-0.536,2.225-0.855,3.976-2.276,5.893
				c-1.185,1.598-2.596,3.029-3.655,4.714c-0.704,1.12-1.242,2.336-1.758,3.555c-0.247,0.584-0.486,1.274-0.168,1.823"/>
			<path style="fill:#C85A43;" d="M290.982,292.799c0.86-2.384,1.917-4.756,2.36-7.157c1.28-6.944,1.454-13.42,4.497-19.998
				c1.696-3.666,3.858-7.199,4.587-11.172c0.729-3.973-0.408-8.663-3.923-10.652c-3.713-2.101-8.653-0.309-11.45,2.912
				c-6.35,7.312-9.248,17.352-9.483,26.9c-0.12,4.871,0.461,9.798,1.942,14.449c1.524,4.785,4.812,8.361,6.865,12.831
				c0.794,1.73,0.998,3.7,1.909,5.371c0.32-3.734,0.966-7.44,1.925-11.063C290.424,294.411,290.691,293.604,290.982,292.799z"/>
			<path style="fill:none;stroke:#111314;stroke-width:0.75;stroke-linecap:round;stroke-linejoin:round;stroke-miterlimit:10;" d="
				M291.233,260.314c-2.683,5.295-5.414,10.749-5.982,16.658c-0.906,9.429,3.809,18.685,3.146,28.134
				c-0.285,4.066-1.562,8.011-1.886,12.074c-0.645,8.102,2.515,16.023,2.986,24.137c0.369,6.348-0.951,12.786-3.787,18.477"/>
			<path style="fill:#7AC1B3;" d="M265.802,278.408c-1.182-2.215-2.715-4.203-5.005-5.701c-2.216-1.449-5.287-1.924-7.479-0.439
				c-2.055,1.393-2.806,4.063-3.006,6.537c-0.289,3.572,0.283,7.262,1.983,10.417c1.354,2.513,3.37,4.612,4.823,7.069
				c1.208,2.043,2.007,4.297,2.974,6.464c2.385,5.346,6.616,9.803,8.872,15.076c2.384,5.574,5.004,11.305,5.25,17.475
				c-0.209-5.241,1.437-10.364,2.021-15.576c0.829-7.397-1.235-14.324-2.437-21.519c-0.61-3.651-2.705-6.782-4.103-10.148
				C268.37,284.871,267.414,281.429,265.802,278.408z"/>
			<path style="fill:none;stroke:#111314;stroke-width:0.75;stroke-linecap:round;stroke-linejoin:round;stroke-miterlimit:10;" d="
				M275.293,361.195c-3.067-19.767,1.579-40.855-5.868-59.42c-1.779-4.434-3.17-5.795-5.242-10.1"/>
			<g>
				<path style="fill:#7AC1B3;" d="M307.802,323.403c2.872,4.301,5.592,8.757,9.186,11.852c2.261,1.947,4.891,3.443,7.077,5.475
					c2.186,2.032,3.956,4.828,3.735,7.804c-0.308,4.166-4.52,7.185-8.679,7.587c-12.319,1.19-20.483-11.792-25.035-21.475
					c-1.354-2.88-2.555-6.259-4.491-8.806c-1.61-2.118-2.536-4.658-4.111-6.849c-0.195-0.271-0.401-0.545-0.682-0.726
					c-0.709-0.458-1.641-0.204-2.441,0.064c-1.61,0.539-2.446,1.401-3.091,3.003c0.25-0.62-0.234-2.217-0.236-2.935
					c-0.002-0.835,0.181-1.434,0.436-2.212c0.574-1.755,1.503-3.039,3.091-4.037c2.634-1.655,6.104-2.227,9.16-1.772
					C299.342,311.508,303.725,317.298,307.802,323.403z"/>
			</g>
			<path style="fill:none;stroke:#323232;stroke-width:0.75;stroke-linecap:round;stroke-linejoin:round;stroke-miterlimit:10;" d="
				M310.547,340.412c-4.356-4.3-7.927-9.332-11.124-14.551c-1.313-2.144-2.572-4.332-4.118-6.316s-3.405-3.775-5.656-4.896
				c-1.725-0.859-3.811-1.29-5.569-0.502c-3.163,1.418-4.87,6.047-5.033,9.198c-0.362,7.005,1.564,19.91,2.924,26.791"/>
			<path style="fill:#111314;" d="M270.564,371.132l-3.928-22.603h31.248l-3.845,22.594c-0.189,1.112-1.069,1.918-2.094,1.918
				h-19.287C271.635,373.04,270.757,372.239,270.564,371.132z"/>
		</g>
		<g>
			<g>
				<g>
					<path style="fill:#D98C73;" d="M241.29,281.688c0.01,0.008,0.019,0.016,0.029,0.024c1.333,1.112,2.973,2.492,3.095,4.223
						c0.203,2.875-1.224,5.899-2.503,8.424c-1.167,2.305-2.943,4.479-5.178,5.816c-2.017,1.206-5.211,1.792-7.336,0.555
						c-0.085-0.049-0.172-0.102-0.27-0.108c-0.097-0.006-0.19,0.036-0.279,0.077c-1.617,0.749-2.901,1.602-4.136,2.889
						c-2.587,2.696-4.948,5.609-7.05,8.698c-3.492-1.197-8.63-5.748-10.971-8.602c5.405-8.41,12.923-13.171,19.563-20.644
						C230.27,278.521,236.573,277.778,241.29,281.688z"/>
					<g>
						<path style="fill:#161111;" d="M248.984,282.195c-0.833-1.492-2.804-1.562-4.287-1.93c-1.446-0.359-2.689-1.119-3.865-2.023
							c0.344,0.265,2.545-4.032,2.627-4.473c0.352-1.874-0.168-3.941-1.446-5.369c-2.042-2.282-5.598-2.884-8.451-1.77
							c-3.108,1.214-5.426,4.645-4.691,7.9c-2.29-0.469-4.574,0.704-6.548,1.957c-1.127,0.715-2.263,1.505-2.957,2.644
							c-0.579,0.95-0.803,2.068-1.018,3.16c-0.55,2.796-1.139,5.587-1.651,8.39c-0.504,2.758,1.226,2.816,3.589,2.816
							c1.633-0.589,2.661-2.439,3.645-3.752c1.043-1.391,2.111-3.257,3.952-3.666c1.544-0.343,2.272,1.23,3.349,1.957
							c1.456,0.983,3.501,0.777,5.078,0.23c0.516-0.179,1.02-0.413,1.561-0.486c2.352-0.316,3.146,2.091,5.135,2.487
							c2.138,0.425,4.504-1.624,5.594-3.386C249.32,285.719,249.692,283.463,248.984,282.195z"/>
						<path style="fill:#C85A43;" d="M224.113,283.109c0.388-0.055,0.776-0.107,1.165-0.157c1.709-0.218,3.249,0.046,4.968-0.334
							c2.037-0.451,4.035-1.071,5.994-1.786c0.95-0.347,4.927-2.694,5.733-2.399c0.836,0.32,1.645,0.709,2.417,1.162
							c0.094,0.055,0.195,0.121,0.222,0.227c0.196,0.771-2.767,3.752-3.316,4.242c-1.604,1.431-3.586,2.399-5.549,3.233
							c-2.276,0.968-4.627,1.828-7.081,2.137c-4.197,0.528-8.45-0.582-12.667-0.255c0.385-1.288,0.771-2.575,1.156-3.863
							c0.104-0.348,0.218-0.713,0.482-0.963c0.31-0.295,0.763-0.372,1.186-0.435C220.586,283.654,222.348,283.358,224.113,283.109z"
							/>
						<path style="fill:#C85A43;" d="M245.179,281.002c0.886-0.226,1.678-0.532,2.232-0.898c0.737-0.487,1.299-1.194,1.801-1.921
							c0.739-1.07,1.377-2.21,1.902-3.4c-1.647-0.206-3.33-0.41-4.954-0.069c-1.751,0.368-3.949,1.68-3.853,3.71
							c-0.287-1.439-1.367-2.608-2.606-3.393c-1.24-0.784-2.805-1.035-4.227-0.678c-0.079,1.955,0.991,3.774,2.242,5.279
							c0.532,0.64,1.139,1.271,1.93,1.527C241.001,281.598,243.301,281.481,245.179,281.002z"/>
					</g>
					<path style="fill:#161111;" d="M229.158,300.893c-0.712-0.003-1.335,0.269-1.902,0.693c-0.057,0.043-0.109,0.093-0.164,0.139
						c-0.209-0.701-0.514-1.474-0.563-1.663c-0.318-1.223-0.549-2.469-0.69-3.725c0.224,0.335,0.447,0.67,0.671,1.005
						c1.104,1.654,2.229,3.096,4.195,3.717c-0.126,0.049-0.244,0.097-0.365,0.146C229.972,301.023,229.595,300.895,229.158,300.893z
						"/>
					
						<path style="fill:none;stroke:#222221;stroke-width:0.75;stroke-linecap:round;stroke-linejoin:round;stroke-miterlimit:10;" d="
						M234.897,296.328c-0.024,0.576,0.068,1.167,0.347,1.671c0.279,0.504,0.762,0.911,1.327,1.019"/>
					<path style="fill:#D98C73;" d="M232.605,289.238c-0.034-1.265-0.268-2.699-1.323-3.397c-1.667-1.102-4.696-0.273-5.26,1.709
						c-0.441,1.548,0.524,3.357,2.054,3.854"/>
					
						<path style="fill:none;stroke:#222221;stroke-width:0.75;stroke-linecap:round;stroke-linejoin:round;stroke-miterlimit:10;" d="
						M229.611,286.852c1.186,0.249,1.952,1.697,1.49,2.818"/>
				</g>
				<path d="M231.593,447.332c-0.342-1.022-0.288-2.275-0.133-3.301c0.951-6.3,1.223-13.55,2.938-19.477
					c0.791-2.733,3.021-1.328,5.407-0.823c2.774,0.587,5.783,1.495,8.437,1.379c-0.461,0.731-0.98,1.468-1.185,2.391
					c-0.421,1.902-0.843,3.803-1.264,5.704c-0.279,1.257-0.536,2.681,0.104,3.974c0.533,1.077,1.564,1.772,2.559,2.207
					c3.581,1.569,7.198,0.675,10.841,1.239c3.17,0.491,6.076,3.918,5.266,6.706H231.593z"/>
				<path d="M114.037,434.559c-1.585,1.518-4.632,3.316-3.692,5.87c0.81,2.199,3.882,3.029,4.57,5.454
					c0.132,0.466,0.102,1.073-0.324,1.304c-0.194,0.105-0.426,0.105-0.646,0.1c-2.517-0.058-7.657,0.133-9.707-1.518
					c-1.81-1.457-2.501-5.438-2.504-7.574c-0.005-4.61,1.172-9.713,2.61-14.059c0.585-1.768,1.487-5.716,3.221-6.735
					c1.461-0.859,4.442,0.779,5.817,1.401c3.755,1.699,7.416,3.605,10.961,5.709c1.394,0.827,2.884,1.836,3.279,3.407
					c0.181,0.72,0.103,1.48-0.031,2.211c-0.356,1.934-1.222,4.675-3.231,5.444c-3.406,1.304-6.308-3.339-8.992-2.127
					c-0.31,0.14-0.562,0.379-0.807,0.615C114.386,434.225,114.212,434.391,114.037,434.559z"/>
				<path style="fill:#4B98B8;" d="M170.342,370.177c-0.152-1.561-0.101-3.146,0.143-4.676c0.48-3.004,1.679-6,3.94-8.035
					c1.839-1.656,4.226-2.553,6.584-3.306c6.228-1.99,12.359-2.453,18.678-3.517c5.084-0.856,10.18-1.671,15.311-2.2
					c4.515-0.465,9.119-1.125,13.644-1.243c1.967-0.052,3.933-0.103,5.901-0.154c8.064-0.211,13.689,4.467,16.265,12.213
					c1.206,3.627,1.363,7.508,1.446,11.329c0.467,21.399-1.033,42.841-4.473,63.967c-0.097,0.593-22.226-2.386-24.058-3.145
					c0.132-9.74,0.523-19.476,1.174-29.194c0.083-1.241,1.288-23.453,1.068-23.427c-11.061,1.276-29.953,8.282-41.015,9.558
					c-5.948,0.686-4.737-4.532-9.494-8.168C172.376,377.825,170.723,374.078,170.342,370.177z"/>
				<g>
					<g>
						<path style="fill:#4B98B8;" d="M118.89,419.189c7.301,0.329,14.602,0.658,21.903,0.987c7.382,0.333,14.955,1.248,22.304,1.575
							c1.089,0.048,2.173,0.084,3.251,0.103c-3.136-6.26-6.19-12.561-9.161-18.9c-2.808-5.99-5.558-12.06-7.117-18.49
							c-1.988-8.193-1.993-16.773,0.349-24.893c1.176-4.078,2.904-7.983,5.04-11.648c0.735-1.262,2.068-4.446,3.383-5.119
							c1.483-0.759,4.811,0.295,6.421,0.531c13.192,1.929,26.547,3.902,38.837,9.069c-0.537-0.226-4.739,4.741-5.483,5.464
							c-2.601,2.53-4.746,5.74-6.868,8.669c-2.9,4.003-2.445,8.173-2.124,12.963c0.904,13.478,3.509,26.76,5.205,40.145
							c0.564,4.456,1.62,12.65,0.577,17.018c-3.294,13.792-36.012,10.604-47.705,9.995c-15.775-0.821-23.992-2.702-27.305-3.716
							C119.389,435.064,118.813,427.144,118.89,419.189z"/>
					</g>
				</g>
				<path style="fill:#D98C73;" d="M261.541,361.587c1.373-3.578,8.014-2.01,10.946-1.525c3.22,0.533,5.646,0,8.598-1.461
					c2.348-1.162,4.737-2.485,7.355-2.576c0.12-0.004,0.244-0.005,0.355,0.04c0.345,0.141,0.371,0.66,0.144,0.955
					c-0.227,0.296-0.601,0.428-0.948,0.564c-0.843,0.332-2.386,1.073-2.64,2.065c-0.326,1.271,10.082-0.702,11.207,0.113
					c0.947,0.686,1.303,1.952,1.271,3.121c-0.086,3.195-2.364,5.244-5.343,5.771c-3.814,0.674-7.759,1.346-11.524,0.438
					c-2.123-0.513-3.822-0.139-5.951-0.225c-2.448-0.099-4.898-0.205-7.333-0.484c-1.615-0.185-3.301-0.479-4.575-1.488
					c-1.061-0.841-1.736-2.15-1.806-3.501C261.261,362.68,261.35,362.084,261.541,361.587z"/>
				<path style="fill:#E3AE3D;" d="M183.95,356.568c-4.264-1.444-8.404-3.239-12.699-4.593c-3.195-1.007-6.507-1.66-9.827-2.094
					c-2.217-0.29-4.813-0.558-7.395-0.489c2.258-3.92,4.516-7.84,6.774-11.76c0.872-1.513,1.745-3.029,2.742-4.464
					c1.75-2.518,3.863-4.76,6.004-6.954c6.015-6.165,12.325-12.044,18.899-17.61c3.691-3.125,7.319-6.88,11.535-9.302
					c3.765-2.163,8.43-1.529,12.51-0.803c6.206,1.105,10.098,4.61,12.61,10.425c1.243,2.876,0.673,6.646-0.041,9.621
					c-2.159,9.004-9.184,11.886-16.074,16.887c-5.905,4.287-10.192,10.378-14.605,16.189c-1.227,1.616-2.656,4.228-4.343,5.374
					C187.97,358.403,186.38,357.391,183.95,356.568z"/>
				<path style="fill:#4B98B8;" d="M204.235,331.483c1.438-0.616,2.928-1.096,4.471-1.367c3.474-0.611,7.484,0.94,10.711,2.021
					c-7.129,6.874-14.78,13.278-20.867,21.276c-1.876,2.466-3.667,5.054-6.082,6.995c-3.856,3.101-7.187,2.807-11.486,1.227
					c-3.613-1.328-10.42-3.213-12.559-6.784c-1.749-2.921,0.344-2.635,3.213-3.824c2.409-0.998,4.768-2.121,7.07-3.344
					c7.222-3.836,13.554-8.951,20.395-13.393C200.727,333.235,202.439,332.252,204.235,331.483z"/>
				<g>
					<path style="fill:#E3AE3D;" d="M205.992,313.671c0.609-1.659,1.738-3.12,2.951-4.511c1.642-1.884,3.785-3.52,6.317-4.133
						c2.532-0.612,5.268-0.065,7.011,1.854c1.363,1.501,2.939,2.267,3.251,4.066c1.224,7.066,1.459,15.228,3.931,21.845
						c0.992,2.656,1.5,4.814,3.283,7.022c2.161,2.675,4.758,4.851,7.679,6.764c2.085,1.366,4.095,2.548,6.461,3.565
						c9.361,4.024,19.302,6.108,29.367,7.74c-0.203,5.342-0.165,7.829-0.003,13.175c-1.852-0.178-3.717-0.317-5.574-0.536
						c-14.1-1.668-27.5-0.453-39.814-8.106c-9.622-5.98-16.531-13.836-22.086-23.865
						C204.498,330.846,202.855,322.218,205.992,313.671z"/>
				</g>
				
					<path style="fill:none;stroke:#222221;stroke-width:0.75;stroke-linecap:round;stroke-linejoin:round;stroke-miterlimit:10;" d="
					M190.681,391.126c-1.982-8.172-3.163-16.538-3.521-24.939"/>
				
					<path style="fill:none;stroke:#222221;stroke-width:0.75;stroke-linecap:round;stroke-linejoin:round;stroke-miterlimit:10;" d="
					M226.063,379.709c0.992-3.246,2.213-6.422,3.651-9.497"/>
				
					<path style="fill:none;stroke:#222221;stroke-width:0.75;stroke-linecap:round;stroke-linejoin:round;stroke-miterlimit:10;" d="
					M210.023,341.027c-3.975-6.061-5.113-11.551-6.857-18.587"/>
				
					<path style="fill:none;stroke:#222221;stroke-width:0.75;stroke-linecap:round;stroke-linejoin:round;stroke-miterlimit:10;" d="
					M166.428,422.067c1.801,1.317,3.519,2.748,5.139,4.282"/>
				
					<path style="fill:none;stroke:#222221;stroke-width:0.75;stroke-linecap:round;stroke-linejoin:round;stroke-miterlimit:10;" d="
					M227.605,326.211c1.325,7.88,5.723,15.201,12.056,20.073"/>
				
					<path style="fill:none;stroke:#222221;stroke-width:0.75;stroke-linecap:round;stroke-linejoin:round;stroke-miterlimit:10;" d="
					M238.161,363.158c-4.135-0.953-7.981-3.125-10.932-6.174"/>
				
					<path style="fill:none;stroke:#222221;stroke-width:0.75;stroke-linecap:round;stroke-linejoin:round;stroke-miterlimit:10;" d="
					M225.833,355.651c-0.923-0.951-1.845-1.902-2.768-2.853"/>
				
					<path style="fill:none;stroke:#222221;stroke-width:0.75;stroke-linecap:round;stroke-linejoin:round;stroke-miterlimit:10;" d="
					M152.173,381.443c0.293,2.95,1.124,5.846,2.439,8.503"/>
				
					<path style="fill:none;stroke:#222221;stroke-width:0.75;stroke-linecap:round;stroke-linejoin:round;stroke-miterlimit:10;" d="
					M155.39,392.686c0.587,1.446,1.173,2.892,1.76,4.338"/>
				
					<path style="fill:none;stroke:#222221;stroke-width:0.75;stroke-linecap:round;stroke-linejoin:round;stroke-miterlimit:10;" d="
					M133.56,421.715c-3.48-0.094-6.958-0.256-10.432-0.488"/>
				
					<path style="fill:none;stroke:#222221;stroke-width:0.75;stroke-linecap:round;stroke-linejoin:round;stroke-miterlimit:10;" d="
					M226.524,410.827c-0.056,4.443-0.112,8.885-0.168,13.328"/>
				<path style="fill:#4B98B8;" d="M208.173,295.673c-5.521-0.021-10.36,3.59-14.51,6.899c-9.165,7.308-18.179,14.91-25.784,23.83
					c-7.605,8.92-13.795,19.264-16.574,30.651c1.097,0.432,2.194,0.863,3.292,1.295c3.38-17.838,16.826-32.02,31.022-43.338
					c6.194-4.938,11.925-10.161,19.168-13.584c1.186-0.561,2.427-1.089,3.738-1.147c1.007-0.045,2.004,0.191,2.978,0.452
					c4.069,1.089,8.77,2.504,12.089,5.105c0.326-1.584-0.591-3.296-1.665-4.435c-1.143-1.212-2.624-2.044-4.107-2.802
					c-2.595-1.326-5.325-2.497-8.219-2.84C209.12,295.703,208.643,295.675,208.173,295.673z"/>
				
					<path style="fill:none;stroke:#222221;stroke-width:0.75;stroke-linecap:round;stroke-linejoin:round;stroke-miterlimit:10;" d="
					M166.591,332.432c-1.433,2.277-2.809,4.59-4.127,6.935"/>
			</g>
			<path style="fill:#161111;" d="M207.59,343.452c-0.24,0.212-0.495,0.395-0.803,0.475c-0.375-0.576-0.168-1.724-0.223-2.402
				c-0.066-0.817-0.196-1.661-0.755-2.301c-0.278-0.318-0.645-0.563-0.856-0.93c-0.249-0.434-0.239-0.965-0.202-1.464
				c0.132-1.81,0.511-3.601,1.122-5.31c0.101,1.233,0.628,2.386,1.147,3.51c0.488,1.057,0.976,2.113,1.465,3.169
				c0.351,0.76,0.789,1.469,1.215,2.188c0.484,0.817,0.076,1.286-0.648,1.879c-0.247,0.202-0.526,0.362-0.775,0.561
				C208.039,343.018,207.821,343.248,207.59,343.452z"/>
			<g>
				<defs>
					<path id="SVGID_00000008125264614205814490000006429078424983919532_" d="M116.953,433.163c-0.69-4.603-0.536-9.397-0.857-14.1
						c8.232,0.371,16.464,0.742,24.697,1.113c7.382,0.333,14.955,1.248,22.304,1.575c1.089,0.048,2.173,0.084,3.251,0.103
						c-3.136-6.26-6.19-12.561-9.161-18.9c-2.808-5.99-5.558-12.06-7.118-18.49c-1.988-8.193-1.993-16.773,0.349-24.893
						c1.176-4.078,2.904-7.983,5.04-11.648c0.735-1.262,2.068-4.446,3.383-5.119c1.483-0.759,4.811,0.296,6.421,0.531
						c13.191,1.929,26.547,3.902,38.837,9.069c-0.538-0.226-4.739,4.741-5.482,5.464c-2.601,2.53-4.746,5.74-6.868,8.669
						c-2.9,4.003-2.445,8.174-2.124,12.963c0.904,13.478,3.509,26.76,5.205,40.145c0.564,4.456,1.023,9.028-0.02,13.397
						c-3.294,13.792-17.937,12.651-29.068,12.902c-11.913,0.269-21.906,0.172-33.59,0.94c-4.163,0.273-8.952,0.256-13.401,0.26
						C118.228,442.475,117.65,437.812,116.953,433.163z"/>
				</defs>
				<clipPath id="SVGID_00000031194661551204219950000016573977829079612829_">
					<use xlink:href="#SVGID_00000008125264614205814490000006429078424983919532_"  style="overflow:visible;"/>
				</clipPath>
				<path style="clip-path:url(#SVGID_00000031194661551204219950000016573977829079612829_);fill:#161111;" d="M167.859,423.046
					c0.74,0.612,1.48,1.223,2.22,1.835c0.301,0.249,0.683,0.481,0.909,0.801c0.126,0.179,0.249,0.41-0.088,0.28
					c-0.373-0.144-0.74-0.29-1.126-0.397c-0.763-0.211-1.555-0.319-2.348-0.315c-0.288,0.001-0.579,0.018-0.853,0.106
					c-0.184,0.06-0.36,0.151-0.551,0.185c-0.214,0.038-0.436,0.002-0.641-0.068c-0.275-0.094-0.529-0.248-0.739-0.448
					c-0.148-0.141-0.274-0.304-0.433-0.433c-0.373-0.303-0.878-0.38-1.358-0.41c-0.48-0.029-0.974-0.024-1.421-0.201
					c-0.483-0.191-0.874-0.591-1.078-1.068c-0.204-0.478-0.226-1.026-0.086-1.526c0.09-0.322,0.248-0.629,0.486-0.863
					c0.507-0.498,1.29-0.589,1.997-0.519c1.008,0.1,1.984,0.481,2.801,1.078C166.372,421.683,167.074,422.397,167.859,423.046z"/>
			</g>
			<path style="fill:none;stroke:#222221;stroke-width:0.75;stroke-linecap:round;stroke-linejoin:round;stroke-miterlimit:10;" d="
				M200.912,349.822c-1.597,2.449-3.904,4.43-6.567,5.639c-1.459,0.662-3.037,1.108-4.336,2.045
				c-1.585,1.144-2.633,3.001-2.793,4.949"/>
			<g>
				<path style="fill:none;stroke:#323232;stroke-width:0.5;stroke-linecap:round;stroke-linejoin:round;stroke-miterlimit:10;" d="
					M297.671,361.509c-2.754,0.325-5.861,0.498-8.628,0.682"/>
				<path style="fill:none;stroke:#323232;stroke-width:0.5;stroke-linecap:round;stroke-linejoin:round;stroke-miterlimit:10;" d="
					M297.744,363.142c-2.837,0.917-5.811,1.117-8.792,1.087"/>
				<path style="fill:none;stroke:#323232;stroke-width:0.5;stroke-linecap:round;stroke-linejoin:round;stroke-miterlimit:10;" d="
					M297.423,364.988c-2.566,1.099-5.335,1.721-8.125,1.825"/>
			</g>
		</g>
	</g>
	<g>
		
			<line style="fill:none;stroke:#131834;stroke-linecap:round;stroke-linejoin:round;stroke-miterlimit:10;" x1="375" y1="0" x2="375" y2="51.664"/>
		
			<ellipse transform="matrix(0.4068 -0.9135 0.9135 0.4068 160.5908 384.833)" style="fill:#C85A43;" cx="376.627" cy="68.757" rx="10.878" ry="10.878"/>
		<path style="fill:#161111;" d="M422.236,71.088c-6.527-19.85-25.202-34.187-47.236-34.187c-22.034,0-40.709,14.337-47.236,34.187
			H422.236z"/>
		<path style="fill:none;stroke:#E3AE3D;stroke-miterlimit:10;" d="M416.957,67.98C411.159,51.739,394.572,40.009,375,40.009
			c-19.572,0-36.159,11.73-41.957,27.971H416.957z"/>
	</g>
</g>
</svg>
